<svg xmlns="http://www.w3.org/2000/svg" width="37" height="37" viewBox="0 0 37 37">
  <g id="Chat" transform="translate(-28 -523)">
    <rect id="Rectangle_335" data-name="Rectangle 335" width="37" height="37" transform="translate(28 523)" fill="none"/>
    <path id="Path_111" data-name="Path 111" d="M36.339,6.938A49.484,49.484,0,0,1,37,14.205a41.235,41.235,0,0,1-.661,6.938,8.31,8.31,0,0,1-2.312,3.964,6.4,6.4,0,0,1-4.295,1.982,81,81,0,0,1-8.92.661l-7.929,7.6a1.214,1.214,0,0,1-.991.33h-.661c-.661-.33-.661-.661-.661-1.321V27.75l-3.3-.33a9.206,9.206,0,0,1-4.295-2.312A7.683,7.683,0,0,1,.33,21.143,51.149,51.149,0,0,1,0,13.875,51.149,51.149,0,0,1,.33,6.607,6.111,6.111,0,0,1,2.973,2.643,6.4,6.4,0,0,1,7.268.661C11.232.33,14.866,0,18.5,0s7.268.33,11.232.661c1.652,0,2.973.991,4.295,1.982C35.348,3.964,36.339,5.286,36.339,6.938Z" transform="translate(28 523)" fill="#006400"/>
  </g>
</svg>
