<svg xmlns="http://www.w3.org/2000/svg" width="27.885" height="21.053" viewBox="0 0 27.885 21.053">
  <g id="football-field" transform="translate(0.5 -61.1)">
    <g id="Group_3" data-name="Group 3" transform="translate(0 61.6)">
      <path id="Path_7" data-name="Path 7" d="M24.9,61.6H1.982A2.055,2.055,0,0,0,0,63.716V79.537a2.055,2.055,0,0,0,1.982,2.116H24.9a2.055,2.055,0,0,0,1.982-2.116V63.716A2.055,2.055,0,0,0,24.9,61.6ZM13.776,67.748a3.831,3.831,0,0,1,3.31,4.226,3.779,3.779,0,0,1-3.31,3.533ZM.665,66.014H4.043a.817.817,0,0,1,.789.842V76.4a.817.817,0,0,1-.789.842H.665V66.014ZM13.108,75.5A3.831,3.831,0,0,1,9.8,71.279a3.779,3.779,0,0,1,3.31-3.533Zm0-8.469a4.522,4.522,0,0,0-3.965,4.95,4.467,4.467,0,0,0,3.965,4.232v4.726H1.982a1.361,1.361,0,0,1-1.315-1.4V77.949H4.043A1.505,1.505,0,0,0,5.5,76.4V74.433a2.8,2.8,0,0,0,2.276-3.184A2.747,2.747,0,0,0,5.5,68.82V66.856a1.505,1.505,0,0,0-1.451-1.549H.665V63.716a1.361,1.361,0,0,1,1.315-1.4H13.108ZM5.484,73.717V69.539A2.109,2.109,0,0,1,7.112,71.98,2.056,2.056,0,0,1,5.484,73.717Zm20.735,3.522H22.841a.817.817,0,0,1-.789-.842V66.856a.817.817,0,0,1,.789-.842h3.378ZM22.841,65.3a1.505,1.505,0,0,0-1.454,1.552V68.82A2.8,2.8,0,0,0,19.112,72a2.747,2.747,0,0,0,2.276,2.429V76.4a1.505,1.505,0,0,0,1.451,1.549h3.381v1.588a1.361,1.361,0,0,1-1.315,1.4H13.776v-4.72a4.522,4.522,0,0,0,3.965-4.95,4.467,4.467,0,0,0-3.965-4.232V62.31H24.9a1.361,1.361,0,0,1,1.315,1.4l0,1.591Zm-1.454,4.232v4.178a2.109,2.109,0,0,1-1.627-2.441A2.056,2.056,0,0,1,21.387,69.536Z" transform="translate(0 -61.6)" fill="#fff" stroke="#fff" stroke-width="1"/>
    </g>
  </g>
</svg>
