<svg xmlns="http://www.w3.org/2000/svg" width="17.986" height="16.072" viewBox="0 0 17.986 16.072">
  <path id="Icon_ionic-ios-heart-empty" data-name="Icon ionic-ios-heart-empty" d="M16.518,3.938h-.043a5.019,5.019,0,0,0-4.107,2.089A5.019,5.019,0,0,0,8.261,3.938H8.217a4.721,4.721,0,0,0-4.842,4.54A9.35,9.35,0,0,0,5.442,13.81a35.311,35.311,0,0,0,6.926,6.2,35.311,35.311,0,0,0,6.926-6.2,9.35,9.35,0,0,0,2.067-5.332A4.721,4.721,0,0,0,16.518,3.938Z" transform="translate(-3.375 -3.938)" fill="#006400"/>
</svg>
