<svg id="Help" xmlns="http://www.w3.org/2000/svg" width="38" height="38" viewBox="0 0 38 38">
  <rect id="Rectangle_481" data-name="Rectangle 481" width="38" height="38" fill="none"/>
  <path id="Path_146" data-name="Path 146" d="M19,0A19,19,0,1,0,38,19,19.056,19.056,0,0,0,19,0Zm-.19,31.54a2.66,2.66,0,1,1,2.66-2.66A2.6,2.6,0,0,1,18.81,31.54Zm5.13-14.82L21.85,19a2.321,2.321,0,0,0-.76,1.71,2.31,2.31,0,0,1-2.28,2.28,2.2,2.2,0,0,1-2.28-2.28,4.24,4.24,0,0,1,1.52-3.42l1.71-2.09a4.313,4.313,0,0,0,1.33-2.66A1.994,1.994,0,0,0,19,10.45a2.235,2.235,0,0,0-2.28,1.71,2.481,2.481,0,0,1-2.28,1.33,1.993,1.993,0,0,1-2.09-2.09,2.066,2.066,0,0,1,.19-.95C13.3,8.17,15.58,6.46,19,6.46c3.99,0,6.65,2.66,6.65,6.08A6.234,6.234,0,0,1,23.94,16.72Z" fill="#006400"/>
</svg>
