<svg xmlns="http://www.w3.org/2000/svg" width="37.449" height="37.825" viewBox="0 0 37.449 37.825">
  <path id="ic_monetization_on_24px" d="M20.725,2A18.913,18.913,0,1,0,39.449,20.913,18.826,18.826,0,0,0,20.725,2Zm2.64,30.43v3.612h-5v-3.65c-3.2-.681-5.917-2.761-6.123-6.43h3.67c.187,1.986,1.535,3.537,4.962,3.537,3.67,0,4.494-1.853,4.494-3.007,0-1.57-.824-3.045-5-4.047-4.644-1.135-7.827-3.064-7.827-6.941,0-3.253,2.6-5.371,5.823-6.071V5.783h5V9.47A6.669,6.669,0,0,1,28.7,15.882h-3.67c-.094-2.1-1.2-3.537-4.157-3.537-2.809,0-4.494,1.286-4.494,3.1,0,1.589,1.217,2.629,5,3.612s7.827,2.629,7.827,7.395c-.019,3.461-2.584,5.352-5.842,5.976Z" transform="translate(-2 -2)" fill="#006400"/>
</svg>
