<svg xmlns="http://www.w3.org/2000/svg" width="46.897" height="43.73" viewBox="0 0 46.897 43.73">
  <path id="ic_network_locked_24px" d="M55.392,23.6a14.314,14.314,0,0,1,1.466.127L55.392,11.815,20.3,45.1l18.961,3.828v-7.6a7.177,7.177,0,0,1,2.933-5.649V35C42.195,28.717,48.119,23.6,55.392,23.6Zm7.332,15.2V35c0-3.5-3.285-6.333-7.332-6.333S48.06,31.5,48.06,35v3.8a2.763,2.763,0,0,0-2.933,2.533V51.467A2.763,2.763,0,0,0,48.06,54H62.724a2.763,2.763,0,0,0,2.933-2.533V41.333A2.763,2.763,0,0,0,62.724,38.8Zm-2.933,0h-8.8V35c0-2.1,1.965-3.8,4.4-3.8s4.4,1.7,4.4,3.8Z" transform="translate(-19.259 -10.77)" fill="#006400" stroke="#006400" stroke-width="1"/>
</svg>
