<svg xmlns="http://www.w3.org/2000/svg" width="31.962" height="31.962" viewBox="0 0 31.962 31.962">
  <g id="Icon_feather-image" data-name="Icon feather-image" transform="translate(1 1)">
    <path id="Path_79" data-name="Path 79" d="M7.783,4.5H30.765a3.283,3.283,0,0,1,3.283,3.283V30.765a3.283,3.283,0,0,1-3.283,3.283H7.783A3.283,3.283,0,0,1,4.5,30.765V7.783A3.283,3.283,0,0,1,7.783,4.5Z" transform="translate(-4.5 -4.5)" fill="none" stroke="#006400" stroke-linecap="round" stroke-linejoin="round" stroke-width="2"/>
    <path id="Path_80" data-name="Path 80" d="M15.425,12.962A2.462,2.462,0,1,1,12.962,10.5,2.462,2.462,0,0,1,15.425,12.962Z" transform="translate(-3.934 -3.934)" fill="none" stroke="#006400" stroke-linecap="round" stroke-linejoin="round" stroke-width="2"/>
    <path id="Path_81" data-name="Path 81" d="M33.765,23.208,25.557,15,7.5,33.057" transform="translate(-4.217 -3.509)" fill="none" stroke="#006400" stroke-linecap="round" stroke-linejoin="round" stroke-width="2"/>
  </g>
</svg>
