<svg xmlns="http://www.w3.org/2000/svg" width="32.831" height="16.415" viewBox="0 0 32.831 16.415">
  <path id="Icon_material-link" data-name="Icon material-link" d="M6.119,18.708a5.093,5.093,0,0,1,5.089-5.089h6.566V10.5H11.208a8.208,8.208,0,0,0,0,16.415h6.566V23.8H11.208A5.093,5.093,0,0,1,6.119,18.708Zm6.73,1.642H25.982V17.066H12.849ZM27.623,10.5H21.057v3.119h6.566a5.089,5.089,0,1,1,0,10.178H21.057v3.119h6.566a8.208,8.208,0,1,0,0-16.415Z" transform="translate(-3 -10.5)" fill="#006400"/>
</svg>
