<svg id="Mobile" xmlns="http://www.w3.org/2000/svg" width="36" height="43" viewBox="0 0 36 43">
  <rect id="Rectangle_975" data-name="Rectangle 975" width="36" height="43" fill="none"/>
  <path id="Path_259" data-name="Path 259" d="M27,0a2.88,2.88,0,0,1,2.1.806A2.329,2.329,0,0,1,30,2.688V40.313a2.329,2.329,0,0,1-.9,1.881A2.88,2.88,0,0,1,27,43H3a2.88,2.88,0,0,1-2.1-.806A2.329,2.329,0,0,1,0,40.313V2.688A2.329,2.329,0,0,1,.9.806,2.88,2.88,0,0,1,3,0ZM24.9,32.25V7.256H5.1V32.25Zm-12,7.256a2.88,2.88,0,0,0,2.1.806,2.88,2.88,0,0,0,2.1-.806,2.416,2.416,0,0,0,0-3.762,2.88,2.88,0,0,0-2.1-.806,2.88,2.88,0,0,0-2.1.806,2.416,2.416,0,0,0,0,3.762Z" transform="translate(3)" fill="#006400"/>
</svg>
