<svg xmlns="http://www.w3.org/2000/svg" width="28.966" height="27.406" viewBox="0 0 28.966 27.406">
  <path id="Path_1" data-name="Path 1" d="M70.983,182.274c-7.72,0-13.983,5.921-13.983,13.219s6.263,13.187,13.983,13.187,13.983-5.888,13.983-13.187S78.7,182.282,70.983,182.274Zm10.838,6.335-.991,3.878L75.735,194.1l-4.274-3.232v-4.783l4.889-1.842a12.968,12.968,0,0,1,5.47,4.363Zm.068,13.639-4.615.679-2.53-3.135,1.3-4.848,5.026-1.584,2.906,3.264a11.886,11.886,0,0,1-2.085,5.624Zm-17.162.679-4.65-.679a11.884,11.884,0,0,1-2.085-5.624L60.9,193.36l5.026,1.584,1.3,4.848Zm-6.8-7.628a11.72,11.72,0,0,1,1.538-5.624l.752,3.038Zm10.154,4.137-1.231-4.686,4.137-3.1,4.137,3.1-1.231,4.686Zm13.675-6.723.752-3.038a11.683,11.683,0,0,1,1.5,5.624Zm-6.7-8.953-4.068,1.551-4.1-1.551a13.627,13.627,0,0,1,8.171,0Zm-9.47.485,4.923,1.842v4.783L66.231,194.1l-5.094-1.616-.991-3.878a12.956,12.956,0,0,1,5.436-4.363Zm-4.718,19,3.795.549,2.291,3.394a13.124,13.124,0,0,1-6.086-3.943Zm7.419,4.3-2.8-4.137a4.109,4.109,0,0,1,2.462-3.1c2.128-.776,6.051,0,6.051,0l2.53,3.135-2.427,4.008a13.733,13.733,0,0,1-5.812.1Zm7.111-.452,1.983-3.3,3.727-.549a13.054,13.054,0,0,1-5.709,3.846Zm0,0" transform="translate(-56.5 -181.774)" fill="#fff" stroke="#fff" stroke-width="1"/>
</svg>
