<svg id="Alert" xmlns="http://www.w3.org/2000/svg" width="31.918" height="34" viewBox="0 0 31.918 34">
  <rect id="Rectangle_479" data-name="Rectangle 479" width="31" height="31" fill="none"/>
  <path id="Path_1" data-name="Path 1" d="M30.014,29.75H19.989A4.148,4.148,0,0,1,15.978,34a4.148,4.148,0,0,1-4.01-4.25H1.942a1.949,1.949,0,0,1-1.8-1.487,2.357,2.357,0,0,1,.6-2.338,8.737,8.737,0,0,0,3.208-6.8V12.75C3.947,5.738,9.361,0,15.978,0S28.009,5.738,28.009,12.75v6.375a8.737,8.737,0,0,0,3.208,6.8,2.088,2.088,0,0,1,.6,2.338A1.949,1.949,0,0,1,30.014,29.75Z" transform="translate(-0.063)" fill="#006400" fill-rule="evenodd"/>
</svg>
