<svg id="Web" xmlns="http://www.w3.org/2000/svg" width="37" height="37" viewBox="0 0 37 37">
  <path id="Path_4" data-name="Path 4" d="M5.55,5.55A16.8,16.8,0,0,1,18.5,0,16.8,16.8,0,0,1,31.45,5.55,16.8,16.8,0,0,1,37,18.5a16.8,16.8,0,0,1-5.55,12.95A16.8,16.8,0,0,1,18.5,37,16.8,16.8,0,0,1,5.55,31.45C2.158,27.75,0,23.742,0,18.5A16.8,16.8,0,0,1,5.55,5.55ZM20.967,33.3q1.85,0,4.625-2.775A13.467,13.467,0,0,0,27.75,24.05a5.106,5.106,0,0,0-1.542-3.7A5.428,5.428,0,0,0,22.2,18.5H19.117a9,9,0,0,1-2.775-.617,2.8,2.8,0,0,1-.925-2.158,1.6,1.6,0,0,1,.617-1.233,2.338,2.338,0,0,1,1.233-.617,2.1,2.1,0,0,1,1.542.925c.617.308.925.617,1.233.617a1.854,1.854,0,0,0,1.233-.308,1.854,1.854,0,0,0,.308-1.233,4.907,4.907,0,0,0-1.542-3.083,12.753,12.753,0,0,0,1.542-5.858.663.663,0,0,0-.617-.617A9.532,9.532,0,0,0,18.5,3.7c-3.392.308-5.858.925-8.017,2.467a7.763,7.763,0,0,0-2.775,6.167,7.9,7.9,0,0,0,2.467,5.858,8.424,8.424,0,0,0,5.858,2.467h0v1.233a3.959,3.959,0,0,0,1.233,3.083,4.49,4.49,0,0,0,2.775,1.85v5.55c0,.308,0,.308.308.617S20.658,33.3,20.967,33.3Z" transform="translate(0 0)" fill="#006400"/>
</svg>
