<svg xmlns="http://www.w3.org/2000/svg" width="95.031" height="89.632" viewBox="0 0 95.031 89.632">
  <path id="blocked" d="M47.515,0C21.315,0,0,20.106,0,44.819S21.318,89.633,47.515,89.633s47.515-20.1,47.515-44.814S73.715,0,47.515,0Zm0,6.24a42.241,42.241,0,0,1,25.667,8.567L15.7,69.025A37.073,37.073,0,0,1,6.616,44.818C6.616,23.547,24.964,6.241,47.515,6.241Zm0,77.151A42.147,42.147,0,0,1,20.259,73.55l57.72-54.442a37.222,37.222,0,0,1,10.435,25.71C88.414,66.088,70.067,83.393,47.515,83.393Z" transform="translate(0 -0.001)" fill="#d60f37"/>
</svg>
