<svg xmlns="http://www.w3.org/2000/svg" width="88.558" height="65.924" viewBox="0 0 88.558 65.924">
  <g id="Icon_ionic-ios-camera" data-name="Icon ionic-ios-camera" transform="translate(-9.841 -17.674)">
    <path id="Path_662" data-name="Path 662" d="M86.024,18.862H73.455a3.755,3.755,0,0,1-2.767-1.236C64.138,10.347,61.67,7.875,59,7.875H39.277c-2.7,0-5.35,2.472-11.923,9.774a3.683,3.683,0,0,1-2.744,1.213h-.946V17.031A1.844,1.844,0,0,0,21.819,15.2h-6a1.844,1.844,0,0,0-1.845,1.831v1.831h-1.73c-4.082,0-7.749,3.022-7.749,7.027V66.176A7.955,7.955,0,0,0,12.226,73.8h73.8c4.059,0,7.034-3.617,7.034-7.622V25.89A6.848,6.848,0,0,0,86.024,18.862ZM49.7,64.734A19.571,19.571,0,1,1,68.474,46.1,19.662,19.662,0,0,1,49.7,64.734Zm21.217-32.6a2.976,2.976,0,1,1,3-2.976A2.981,2.981,0,0,1,70.918,32.139Z" transform="translate(5.341 9.799)"/>
  </g>
</svg>
