<svg xmlns="http://www.w3.org/2000/svg" width="23.558" height="17.369" viewBox="0 0 23.558 17.369">
  <g id="Icon_ionic-ios-camera" data-name="Icon ionic-ios-camera" transform="translate(-1.325 -7.875)">
    <path id="Path_661" data-name="Path 661" d="M20.307,18.466a3.175,3.175,0,1,1-3.175-3.173A3.174,3.174,0,0,1,20.307,18.466Z" transform="translate(-4.028 -0.483)" fill="#fff"/>
    <path id="Path_662" data-name="Path 662" d="M26.187,10.77H22.843a1,1,0,0,1-.736-.326c-1.742-1.918-2.4-2.569-3.11-2.569H13.751c-.718,0-1.423.651-3.172,2.575a.984.984,0,0,1-.73.32H9.6v-.482A.488.488,0,0,0,9.107,9.8h-1.6a.488.488,0,0,0-.491.482v.482h-.46A1.976,1.976,0,0,0,4.5,12.621V23.236a2.106,2.106,0,0,0,2.055,2.008H26.187a1.947,1.947,0,0,0,1.871-2.008V12.621A1.813,1.813,0,0,0,26.187,10.77ZM16.524,22.856a5.157,5.157,0,1,1,4.994-4.909A5.206,5.206,0,0,1,16.524,22.856Zm5.644-8.588a.784.784,0,1,1,.8-.784A.789.789,0,0,1,22.168,14.268Z" transform="translate(-3.175)" fill="#fff"/>
  </g>
</svg>
