<svg xmlns="http://www.w3.org/2000/svg" width="35.667" height="26.75" viewBox="0 0 35.667 26.75">
  <g id="Icon_ionic-ios-camera" data-name="Icon ionic-ios-camera" transform="translate(-4.5 -7.875)">
    <path id="Path_661" data-name="Path 661" d="M24.638,20.634A5.341,5.341,0,1,1,19.3,15.293,5.341,5.341,0,0,1,24.638,20.634Z" transform="translate(3.036 2.381)" fill="#fff"/>
    <path id="Path_662" data-name="Path 662" d="M37.334,12.333H32.272a1.507,1.507,0,0,1-1.115-.5c-2.638-2.954-3.632-3.957-4.709-3.957H18.507c-1.087,0-2.155,1-4.8,3.966a1.479,1.479,0,0,1-1.105.492h-.381V11.59a.745.745,0,0,0-.743-.743H9.061a.745.745,0,0,0-.743.743v.743h-.7A3.012,3.012,0,0,0,4.5,15.185V31.532a3.215,3.215,0,0,0,3.112,3.093H37.334a2.977,2.977,0,0,0,2.833-3.093V15.185A2.768,2.768,0,0,0,37.334,12.333ZM22.7,30.947a7.941,7.941,0,1,1,7.561-7.561A7.948,7.948,0,0,1,22.7,30.947ZM31.25,17.72a1.207,1.207,0,1,1,1.207-1.207A1.205,1.205,0,0,1,31.25,17.72Z" transform="translate(0 0)" fill="#fff"/>
  </g>
</svg>
