<svg xmlns="http://www.w3.org/2000/svg" width="57.779" height="46.5" viewBox="0 0 57.779 46.5">
  <path id="Icon_awesome-address-card" data-name="Icon awesome-address-card" d="M52.964,2.25H4.815A4.9,4.9,0,0,0,0,7.232V43.768A4.9,4.9,0,0,0,4.815,48.75H52.964a4.9,4.9,0,0,0,4.815-4.982V7.232A4.9,4.9,0,0,0,52.964,2.25Zm-35.31,9.964a6.54,6.54,0,0,1,6.42,6.643,6.54,6.54,0,0,1-6.42,6.643,6.54,6.54,0,0,1-6.42-6.643A6.54,6.54,0,0,1,17.655,12.214ZM28.89,36.793a2.13,2.13,0,0,1-2.247,1.993H8.667A2.13,2.13,0,0,1,6.42,36.793V34.8c0-3.3,3.019-5.979,6.741-5.979h.5a10.013,10.013,0,0,0,7.985,0h.5c3.722,0,6.741,2.678,6.741,5.979Zm22.47-5.48a.819.819,0,0,1-.8.83H36.112a.819.819,0,0,1-.8-.83V29.652a.819.819,0,0,1,.8-.83H50.557a.819.819,0,0,1,.8.83Zm0-6.643a.819.819,0,0,1-.8.83H36.112a.819.819,0,0,1-.8-.83V23.009a.819.819,0,0,1,.8-.83H50.557a.819.819,0,0,1,.8.83Zm0-6.643a.819.819,0,0,1-.8.83H36.112a.819.819,0,0,1-.8-.83V16.366a.819.819,0,0,1,.8-.83H50.557a.819.819,0,0,1,.8.83Z" transform="translate(0 -2.25)" fill="#fff"/>
</svg>
