<svg xmlns="http://www.w3.org/2000/svg" width="49.302" height="58.946" viewBox="0 0 49.302 58.946">
  <path id="Icon_awesome-passport" data-name="Icon awesome-passport" d="M14.264,20.263h4.3a27.021,27.021,0,0,1,1.564-8.106,10.985,10.985,0,0,0-5.866,8.106Zm0,3.684a10.988,10.988,0,0,0,5.866,8.106,26.987,26.987,0,0,1-1.564-8.106h-4.3Zm10.386,9.059c.846-.858,2.286-3.963,2.578-9.059H22.071C22.365,29.042,23.8,32.148,24.651,33.006ZM22.072,20.263H27.23c-.293-5.1-1.732-8.2-2.578-9.059C23.8,12.061,22.365,15.167,22.072,20.263Zm7.1,11.79a10.985,10.985,0,0,0,5.866-8.106h-4.3A26.987,26.987,0,0,1,29.172,32.053ZM45.78,0H7.043A7.211,7.211,0,0,0,0,7.368V51.578a7.211,7.211,0,0,0,7.043,7.368H45.78A3.606,3.606,0,0,0,49.3,55.262V3.684A3.606,3.606,0,0,0,45.78,0Zm-8.8,47.893H12.325a1.844,1.844,0,0,1,0-3.684H36.976a1.844,1.844,0,0,1,0,3.684ZM24.651,36.841c-7.779,0-14.086-6.6-14.086-14.736S16.872,7.368,24.651,7.368s14.086,6.6,14.086,14.736S32.43,36.841,24.651,36.841Zm4.521-24.685a26.987,26.987,0,0,1,1.564,8.106h4.3a10.985,10.985,0,0,0-5.866-8.106Z" fill="#fff"/>
</svg>
