<svg xmlns="http://www.w3.org/2000/svg" width="25.5" height="25.5" viewBox="0 0 25.5 25.5">
  <path id="Icon_metro-instagram" data-name="Icon metro-instagram" d="M23.837,1.928H6.8A4.246,4.246,0,0,0,2.571,6.161V23.194A4.246,4.246,0,0,0,6.8,27.428H23.837a4.246,4.246,0,0,0,4.233-4.233V6.161A4.246,4.246,0,0,0,23.837,1.928Zm-13.1,11.156h9.174a4.856,4.856,0,1,1-9.174,0Zm14.149,0v9.561a1.6,1.6,0,0,1-1.594,1.594H7.352a1.6,1.6,0,0,1-1.594-1.594V13.084H8.251a7.246,7.246,0,1,0,14.139,0h2.493Zm0-5.579a.8.8,0,0,1-.8.8H22.492a.8.8,0,0,1-.8-.8V5.912a.8.8,0,0,1,.8-.8h1.594a.8.8,0,0,1,.8.8Z" transform="translate(-2.571 -1.928)"/>
</svg>
