<svg xmlns="http://www.w3.org/2000/svg" xmlns:xlink="http://www.w3.org/1999/xlink" width="89.109" height="109.834" viewBox="0 0 89.109 109.834">
  <defs>
    <clipPath id="clip-path">
      <path id="Path_528" data-name="Path 528" d="M313.641,286.906c.027.057,9.514,0,9.514,0s.842-1.4.421-1.878-1.094.426-1.094.426-.042-1.578-.211-1.326-.379-1.327-.673-.684-.421,1.42-.673.968-.083-1.97-.421-1.714-.248,1.488-.631.883-1.052-1.9-1.977-1.415-1.173,2.173-1.472,1.548-1.094-1.774-1.052-.89-1.119.056-.938.89-.671.392-.792.7S312.669,284.845,313.641,286.906Z" transform="translate(-313.181 -282.06)"/>
    </clipPath>
    <clipPath id="clip-path-2">
      <path id="Path_575" data-name="Path 575" d="M482.972,284.906c-.027.057-9.514,0-9.514,0s-.842-1.4-.421-1.878,1.094.426,1.094.426.042-1.578.21-1.326.379-1.327.673-.684.421,1.42.673.968.083-1.97.421-1.714.248,1.488.631.883,1.052-1.9,1.978-1.415,1.173,2.173,1.472,1.548,1.094-1.774,1.052-.89,1.119.056.938.89.671.392.792.7S483.945,282.845,482.972,284.906Z" transform="translate(-472.92 -280.06)"/>
    </clipPath>
  </defs>
  <g id="Group_1118" data-name="Group 1118" transform="translate(-213.911 -34.121)">
    <path id="Path_463" data-name="Path 463" d="M537.23,453.6l.491-4.909L528.349,452l2.457,5.959q1.9-.615,3.769-1.3l.088.32q-.839.283-1.682.555-1.04.326-2.088.642l.685,1.661,9.289-3.462Z" transform="translate(-246.618 -325.151)"/>
    <path id="Path_464" data-name="Path 464" d="M259.766,456.887l.089-.326q.966.357,1.939.7.917.312,1.839.617L266.056,452l-9.372-3.31.491,4.909-3.636,2.773,9.288,3.462.714-1.733Q261.642,457.528,259.766,456.887Z" transform="translate(-31.081 -325.151)"/>
    <path id="Path_465" data-name="Path 465" d="M321.867,84.105a13.36,13.36,0,0,1-3.227-4.059,13.205,13.205,0,0,1-.809-1.9,13.376,13.376,0,0,1-.7-4.263c.016-.2.016-.4.016-.591a75.513,75.513,0,0,0-16.683-5.252c-.424-.081-.845-.157-1.269-.23-.209-.037-.421-.073-.633-.107-.133-.024-.264-.044-.4-.063-.071-.013-.144-.026-.217-.037s-.146-.021-.22-.034c-.144-.024-.291-.044-.437-.065-.236-.034-.468-.068-.7-.1q-.707-.1-1.408-.181l-.979-.11c-.264-.029-.531-.055-.8-.079q-.844-.083-1.688-.139c-.2-.016-.4-.029-.6-.042-.28-.018-.563-.034-.845-.05-.327-.016-.654-.031-.984-.044a.358.358,0,0,0-.052,0q-.958-.036-1.918-.05c-1.628-.018-3.261.013-4.889.1q-2.579.134-5.15.445a75.286,75.286,0,0,0-21.7,6.014c.013.223.021.442.021.665a13.442,13.442,0,0,1-5.378,10.709q-.4.3-.824.573A77.925,77.925,0,0,0,252.653,99.6a.9.9,0,0,0,.039.12c.013.044.026.086.042.128q.746,2.257,1.63,4.46c.034.086.071.173.1.259q.565,1.393,1.18,2.761c.031.071.065.144.1.217q.636,1.405,1.329,2.782c.029.06.06.12.092.178q.714,1.421,1.489,2.808c.026.047.052.094.081.141q1.378,2.457,2.931,4.813c.024.039.05.079.076.115s.052.081.078.12a77.784,77.784,0,0,0,7.1,9.136v0c.243.269.487.536.738.8q1.586,1.711,3.282,3.329c.162.157.324.311.487.461a78.1,78.1,0,0,0,12.946,9.845,78.249,78.249,0,0,0,12.841-9.73q1.755-1.641,3.4-3.378a78.346,78.346,0,0,0,8.531-10.772c.029-.039.055-.078.081-.12s.052-.078.076-.118q1.531-2.343,2.894-4.792c.021-.039.042-.081.065-.12q.781-1.409,1.5-2.855c.029-.052.055-.107.081-.162q.695-1.393,1.335-2.818c.029-.068.06-.134.089-.2q.62-1.39,1.186-2.8c.029-.076.06-.154.089-.233q.9-2.249,1.646-4.556c.013-.042.029-.086.042-.128s.026-.084.039-.123A78.249,78.249,0,0,0,323.4,85.233,13.457,13.457,0,0,1,321.867,84.105Zm-61.486-.329a1.367,1.367,0,0,1-.848-.428,1.247,1.247,0,0,1-.152.559,1.053,1.053,0,0,1-.92.558,1.031,1.031,0,0,1-.243-.029,1.065,1.065,0,0,1-.679-1.526,1.513,1.513,0,0,1-.338.044,1.118,1.118,0,0,1-.352-.055.882.882,0,0,1-.547-1.179,1.218,1.218,0,0,1,.819-.8,1.116,1.116,0,0,1,.436-.034,1.36,1.36,0,0,1-.094-.321,1.018,1.018,0,0,1,.227-.832.875.875,0,0,1,.623-.311,1.061,1.061,0,0,1,.772.28,1.245,1.245,0,0,1,.349.592,1.373,1.373,0,0,1,.679-.434.941.941,0,0,1,.964.283,1.153,1.153,0,0,1,.1,1.264,1.117,1.117,0,0,1-.357.414,1.132,1.132,0,0,1,.437.47,1.021,1.021,0,0,1-.075,1.023.893.893,0,0,1-.764.465Zm33.276,33.251-1.624,1.173v14.6a.081.081,0,0,1-.081.081h-7.635a.081.081,0,0,1-.081-.081v-2.656a.081.081,0,0,1,.081-.081h4.9v-9.831l-5.035,3.638v5.512a.081.081,0,0,1-.081.081h-2.656a.081.081,0,0,1-.081-.081V114.6a.081.081,0,0,1,.081-.081H284.1a.081.081,0,0,1,.081.081v5.8l7.827-5.654a.081.081,0,0,1,.113.018l1.555,2.153A.081.081,0,0,1,293.656,117.026Zm9.942.336a25.815,25.815,0,0,0-4.374-3.177q-.874-.5-1.79-.94a25.336,25.336,0,0,0-2.57-1.058,25.88,25.88,0,0,0-17.056.03l-.331.12c-.3.111-.6.227-.894.349a25.7,25.7,0,0,0-5.64,3.21q-.924.693-1.783,1.465-.426-.384-.836-.787-.563-.554-1.093-1.141A25.766,25.766,0,0,1,276.583,74.4c.3-.122.593-.237.894-.349.11-.041.22-.08.331-.119A25.749,25.749,0,0,1,309.79,87.491a25.3,25.3,0,0,1,1.3,3.492q.212.719.38,1.455a25.792,25.792,0,0,1-7.876,24.924ZM315.44,82.9a1.119,1.119,0,0,1-.352.055,1.513,1.513,0,0,1-.338-.044,1.065,1.065,0,0,1-.679,1.526,1.033,1.033,0,0,1-.243.029,1.052,1.052,0,0,1-.92-.558,1.247,1.247,0,0,1-.152-.559,1.368,1.368,0,0,1-.849.428h-.036a.894.894,0,0,1-.764-.465,1.021,1.021,0,0,1-.075-1.023,1.131,1.131,0,0,1,.438-.471,1.107,1.107,0,0,1-.358-.413,1.152,1.152,0,0,1,.1-1.264.939.939,0,0,1,.963-.283,1.369,1.369,0,0,1,.679.434,1.248,1.248,0,0,1,.349-.592,1.061,1.061,0,0,1,.772-.28.875.875,0,0,1,.624.311,1.018,1.018,0,0,1,.227.832,1.349,1.349,0,0,1-.094.322,1.107,1.107,0,0,1,.436.034,1.218,1.218,0,0,1,.82.8A.882.882,0,0,1,315.44,82.9Z" transform="translate(-27.826 -25.552)" fill="#fff"/>
    <path id="Path_466" data-name="Path 466" d="M369.206,102.55A25.777,25.777,0,0,0,341,94.921l-.331.119c-.3.111-.6.227-.894.349a25.824,25.824,0,0,0-8.289,5.493c-.539.532-1.052,1.091-1.543,1.668Z" transform="translate(-91.009 -46.54)" fill="#186634"/>
    <g id="Group_1294" data-name="Group 1294" transform="translate(232.82 65.709)">
      <path id="Path_467" data-name="Path 467" d="M354.184,214.018l-.014-.165c-.059-.668-.112-1.34-.127-1.95-.156.4-.3.8-.433,1.2l-.11.318a1.5,1.5,0,0,1,.112.6Z" transform="translate(-342.301 -205.146)" fill="#397f45"/>
      <path id="Path_468" data-name="Path 468" d="M425.335,183.143a1.13,1.13,0,0,0,.562-.331,2.191,2.191,0,0,0,.39-1.546,5.245,5.245,0,0,0-.1-.693h-4.147A4.3,4.3,0,0,0,425.335,183.143Z" transform="translate(-396.057 -180.573)" fill="#397f45"/>
      <path id="Path_469" data-name="Path 469" d="M311.446,188.684a1.643,1.643,0,0,1,.4-.218c.258-.782.575-1.548.857-2.23a6.578,6.578,0,0,1,1.254-2.161c.032-.071.062-.136.094-.2a6.57,6.57,0,0,1,2.1-2.223l.388-.47.5-.608H302.536a25.756,25.756,0,0,0-.954,6.955c0,.645.026,1.284.073,1.917h9.078A2.7,2.7,0,0,1,311.446,188.684Z" transform="translate(-301.582 -180.573)" fill="#397f45"/>
      <path id="Path_470" data-name="Path 470" d="M478.023,181.747c-.09-.4-.193-.786-.3-1.174h-15.85a13.363,13.363,0,0,1,.385,1.288l0,.007a11.279,11.279,0,0,1,.372,5.223,5.056,5.056,0,0,1-.9,2.355H478.6c.047-.633.072-1.272.072-1.917A25.82,25.82,0,0,0,478.023,181.747Z" transform="translate(-427.185 -180.573)" fill="#397f45"/>
    </g>
    <path id="Path_471" data-name="Path 471" d="M322.622,144.713c.118-.153.234-.311.35-.47l.137-.187a.322.322,0,0,1,.028-.1,3.6,3.6,0,0,1,1.846-1.787,3.2,3.2,0,0,1,2.777.042,7.31,7.31,0,0,1,1.952,1.727.323.323,0,0,1,.034.249,17.918,17.918,0,0,1,1.1,1.462,5.338,5.338,0,0,1,.328.6l.072.144h4.267c-.018-.075-.036-.15-.055-.226-.038-.153-.075-.305-.11-.458a12.92,12.92,0,0,1-.294-1.982,5.036,5.036,0,0,1-.011-.607,2.392,2.392,0,0,1-.057-1.495l.013-.044a6.092,6.092,0,0,1-.718-.023.323.323,0,0,1-.052-.637c.135-.033.268-.072.4-.116l-.03-.04a.324.324,0,0,1,.324-.507l.017,0a.324.324,0,0,1,.086-.334.335.335,0,0,1,.239-.088c-.025-.045-.05-.091-.072-.138a1.053,1.053,0,0,1,.191-1.265.971.971,0,0,1,1.251.125,1.37,1.37,0,0,1,.219.276.324.324,0,0,1,.367.111l.047.062.022-.012a.878.878,0,0,1,.343-.818.925.925,0,0,1,1.174.193,1.487,1.487,0,0,1,.3.543.324.324,0,0,1,.278.525,1.366,1.366,0,0,0-.042.194c.044.02.1.043.14.058s.082.032.119.048c.205.059.426.129.693.22a8.367,8.367,0,0,0,.863.193,6.645,6.645,0,0,1,2.905,1.007,2.765,2.765,0,0,1,.568,2.091.3.3,0,0,1-.006.048l-.007.037c0,.013-.007.034-.011.055-.013.063-.032.149-.045.191a.6.6,0,0,1-.193.325,2.176,2.176,0,0,1-2.2.381,2.993,2.993,0,0,1-.36-.165c-.067-.035-.134-.069-.2-.1a2.84,2.84,0,0,0-1.8-.042,3.06,3.06,0,0,0-.634.241,1.253,1.253,0,0,0,.022.126,6.221,6.221,0,0,0,.426,1.117l.053.116c.122.269.232.538.336.808H355.9a25.3,25.3,0,0,0-1.263-3.36,25.754,25.754,0,0,0-3.433-5.512H311.252a25.623,25.623,0,0,0-4.7,8.872h14.726C321.738,145.834,322.193,145.271,322.622,144.713Z" transform="translate(-72.662 -81.098)" fill="#287039"/>
    <path id="Path_472" data-name="Path 472" d="M365.394,245.523a1.388,1.388,0,0,1-.349-1.352c.007-.016.015-.032.023-.047a4.166,4.166,0,0,1-1.148.618c-.125.044-.257.082-.388.121a1.744,1.744,0,0,0-1.022.539,1.823,1.823,0,0,0,.069,1.433c.173.572.325,1.155.457,1.741h4.209A21.3,21.3,0,0,0,365.394,245.523Z" transform="translate(-116.452 -164.708)" fill="#44844d"/>
    <path id="Path_473" data-name="Path 473" d="M396.874,236.811a3.957,3.957,0,0,1,.128-.677,2.169,2.169,0,0,1-.144-1.005,2.108,2.108,0,0,1,.273-.948c0-.528.018-1.063.045-1.527a34.849,34.849,0,0,1-4.653.306h0c-.4,0-.8-.009-1.2-.026a5.435,5.435,0,0,1-1.086,1.237,6.536,6.536,0,0,0-.777.8c-.049.061-.1.122-.149.183a2.567,2.567,0,0,0-.456.682,2.39,2.39,0,0,0,.444,1.821c.331.628.654,1.271.967,1.925h6.292Z" transform="translate(-137.16 -155.712)" fill="#44844d"/>
    <path id="Path_474" data-name="Path 474" d="M435.573,240.215a5.628,5.628,0,0,0,.9-1c.064-.2.131-.406.2-.608l1.029-3.078.025-.073a2.455,2.455,0,0,1-.131-.208c-.7-.429-1.4-.925-2.07-1.409-.128.12-.26.233-.394.338a.324.324,0,0,1-.276.06q-.121.114-.249.219a.323.323,0,0,1-.511-.145c-.122.421-.241.811-.348,1.141a1.982,1.982,0,0,1,.1,1.248,1.642,1.642,0,0,1-.534.807,6.8,6.8,0,0,1-.249.694c-.049.122-.095.235-.128.333a15.2,15.2,0,0,0-.523,1.974h2.851A1.924,1.924,0,0,1,435.573,240.215Z" transform="translate(-171.372 -156.645)" fill="#44844d"/>
    <path id="Path_475" data-name="Path 475" d="M312.995,230.634l-.023-.067a8.32,8.32,0,0,1-.482-1.789,2.986,2.986,0,0,1,.4-2,4.193,4.193,0,0,1,.314-.4c.086-.1.166-.195.236-.293a3.824,3.824,0,0,0,.437-2.462h-.637a2.7,2.7,0,0,1-.079.36,1.9,1.9,0,0,1-.669.99c-.04.03-.083.057-.125.085a.947.947,0,0,0-.167.126.864.864,0,0,0-.076.1,1.042,1.042,0,0,1-.249.282.324.324,0,0,1-.34.026l-.019-.01c-.017.032-.033.065-.047.1a.323.323,0,0,1-.614-.078,2.506,2.506,0,0,1,0-.819.325.325,0,0,1-.165-.3,2.7,2.7,0,0,1,.2-.861h-8.827a25.518,25.518,0,0,0,2.454,8.872H313.6C313.417,231.861,313.207,231.238,312.995,230.634Z" transform="translate(-69.146 -148.631)" fill="#44844d"/>
    <path id="Path_476" data-name="Path 476" d="M324.64,270.783c-.065-.031-.128-.065-.19-.1a.971.971,0,0,1-.1-.069.344.344,0,0,1-.036-.032,1.257,1.257,0,0,1-.414-.952,3.488,3.488,0,0,1-.106-.7l-.006-.078a12.643,12.643,0,0,0-.392-2.168h-8.981a25.788,25.788,0,0,0,3.832,5.6q.529.588,1.093,1.141.409.4.836.786.858-.771,1.782-1.465a25.75,25.75,0,0,1,2.878-1.871C324.77,270.841,324.7,270.814,324.64,270.783Z" transform="translate(-78.826 -182.398)" fill="#5d9362"/>
    <path id="Path_477" data-name="Path 477" d="M434.676,267.638a2.452,2.452,0,0,1-.235-.388,1.1,1.1,0,0,1-.12-.521c0-.018,0-.034.006-.051h-2.753q-.084.507-.134,1.019a25.68,25.68,0,0,1,3.746.611C435.01,268.089,434.838,267.866,434.676,267.638Z" transform="translate(-170.61 -182.398)" fill="#5d9362"/>
    <path id="Path_478" data-name="Path 478" d="M402.578,266.718l0-.04h-6.05c.209.444.414.891.612,1.343a25.881,25.881,0,0,1,4.653-.424c.231,0,.459.009.688.015C402.513,267.3,402.546,267,402.578,266.718Z" transform="translate(-143.233 -182.398)" fill="#5d9362"/>
    <path id="Path_479" data-name="Path 479" d="M370.88,268.443c-.215-.6-.462-1.187-.734-1.765H365.83q.08.38.147.761c.032.182.06.365.088.547a1.591,1.591,0,0,0,1.174.867,9.833,9.833,0,0,1,1.162.414l.025.011-.025.06.024-.009.02-.041.036.019c.112-.043.222-.089.335-.131l.331-.12c.576-.2,1.163-.382,1.757-.545Z" transform="translate(-119.152 -182.398)" fill="#5d9362"/>
    <path id="Path_480" data-name="Path 480" d="M294.386,79.528c-.039.1-.081.209-.123.314q-.534,1.354-1.115,2.688c.005,0,.008,0,.01,0q.581-1.331,1.112-2.688c.044-.1.084-.209.123-.314.063-.16.126-.317.186-.476v-.024C294.517,79.2,294.452,79.364,294.386,79.528ZM224.042,83.14c.016.037.031.076.05.113h0C224.075,83.216,224.06,83.176,224.042,83.14Zm70.345-3.611c-.039.1-.081.209-.123.314q-.534,1.354-1.115,2.688c.005,0,.008,0,.01,0q.581-1.331,1.112-2.688c.044-.1.084-.209.123-.314.063-.16.126-.317.186-.476v-.024C294.517,79.2,294.452,79.364,294.386,79.528Zm-27.212-41.7h-.011a.02.02,0,0,1,.013,0A0,0,0,0,0,267.175,37.829Zm-.024,0,0,0h.01l-.008,0Zm.063.008s0,0,0,0v0Zm.044.005,0,0h0v0Zm-11.407-.484c-.076,0-.154.005-.23.01l.429-.016C255.985,37.35,255.916,37.353,255.851,37.356ZM224.042,83.14c.016.037.031.076.05.113h0C224.075,83.216,224.06,83.176,224.042,83.14Zm-1.324-30.386c0,.011-.008.018-.01.026.039-.073.076-.149.115-.225C222.788,52.623,222.754,52.688,222.717,52.754Zm71.669,26.775c-.039.1-.081.209-.123.314q-.534,1.354-1.115,2.688c.005,0,.008,0,.01,0q.581-1.331,1.112-2.688c.044-.1.084-.209.123-.314.063-.16.126-.317.186-.476v-.024C294.517,79.2,294.452,79.364,294.386,79.528ZM267.35,37.85h0a0,0,0,0,1,0,0h.005A.008.008,0,0,0,267.35,37.85Zm-.092-.011,0,0h0v0Zm-.044-.005h0v0h.005v0Zm-.023,0,0,0,0,0S267.193,37.832,267.19,37.832Zm-.034-.005h-.005l0,0h.005A0,0,0,0,0,267.156,37.827Zm.018,0h-.011a.02.02,0,0,1,.013,0A0,0,0,0,0,267.175,37.829Zm-2.128-.215-.228-.018c.146.011.291.024.434.039C265.183,37.628,265.115,37.62,265.047,37.615Zm-9.2-.259c-.076,0-.154.005-.23.01l.429-.016C255.985,37.35,255.916,37.353,255.851,37.356ZM224.042,83.14c.016.037.031.076.05.113h0C224.075,83.216,224.06,83.176,224.042,83.14Zm-1.324-30.386c0,.011-.008.018-.01.026.039-.073.076-.149.115-.225C222.788,52.623,222.754,52.688,222.717,52.754Zm71.669,26.775c-.039.1-.081.209-.123.314q-.534,1.354-1.115,2.688c.005,0,.008,0,.01,0q.581-1.331,1.112-2.688c.044-.1.084-.209.123-.314.063-.16.126-.317.186-.476v-.024C294.517,79.2,294.452,79.364,294.386,79.528ZM267.347,37.85a0,0,0,0,1,0,0h.005a.008.008,0,0,0-.005,0Zm-.092-.011a0,0,0,0,0-.008,0,.023.023,0,0,1,.013,0h.008s0,0-.005,0Zm-.026,0,.008,0h0a.009.009,0,0,0-.008,0Zm-.016,0h0s0,0-.005,0h0a.01.01,0,0,0,.008,0h.01s0,0-.005,0Zm-.023,0h-.005a.01.01,0,0,0,.008,0h.005l0,0S267.193,37.832,267.19,37.832Zm-.026,0a.02.02,0,0,1,.013,0,0,0,0,0,0,0,0Zm-.018,0h0l.011,0,0,0S267.149,37.827,267.146,37.827Zm-.123-.013.071.008-.063-.008Zm-.267-.029.042.005.052.005.1.011a.034.034,0,0,0-.016,0C266.879,37.8,266.819,37.787,266.756,37.785Zm-1.937-.189c.146.011.291.024.434.039-.07-.008-.139-.016-.207-.021Zm-9.2-.23.429-.016c-.065,0-.133,0-.2.005S255.7,37.361,255.621,37.366Zm-31.53,45.886h0c-.018-.037-.034-.076-.052-.113C224.057,83.176,224.073,83.216,224.091,83.252ZM222.707,52.78c.039-.073.076-.149.115-.225-.034.068-.068.134-.1.2C222.715,52.764,222.709,52.772,222.707,52.78Zm79.81,2.879L299.4,53.848c-.118-.068-.23-.139-.343-.215a6.287,6.287,0,0,1-2.329-2.829v0a6.217,6.217,0,0,1-.351-1.131,6.283,6.283,0,0,1-.133-1.3c0-.06,0-.12,0-.175a1.971,1.971,0,0,1,.021-.309l.406-4.493-4.138-1.856a84.823,84.823,0,0,0-34.06-7.4h-.081v-.016a84.816,84.816,0,0,0-34.073,7.369l-4.151,1.85-.01.005.424,4.538a4.083,4.083,0,0,1,.024.505c0,.2-.011.4-.029.589a6.106,6.106,0,0,1-.254,1.274l-.016.047a6.291,6.291,0,0,1-2.821,3.528l-.249.147-3.326,1.965,0,.018.036.3.453,3.8c.2,1.7.458,3.381.759,5.053l.134.715a0,0,0,0,1,0,.008q.184.95.385,1.892.271,1.26.578,2.51.287,1.15.6,2.293c.073.272.149.542.228.811,0,0,0,0,0,.005q.432,1.492.913,2.962a1.162,1.162,0,0,0,.039.126c.013.042.026.084.042.123.249.764.513,1.523.785,2.277.016.042.031.084.044.126s.031.079.044.12c.233.633.474,1.267.722,1.895.055.141.11.285.17.426q.506,1.276,1.06,2.533.083.2.173.393c.089.2.181.406.272.61s.183.405.275.607q.279.6.57,1.207c.018.037.037.076.055.115h0c.01.024.024.047.034.073s.034.071.052.107c.029.06.058.12.086.178h0q.624,1.288,1.3,2.552l.1.194v0c.024.042.044.084.068.123s.039.076.063.113v0c.042.081.084.16.131.238v0q.444.82.905,1.628.593,1.037,1.217,2.057a.014.014,0,0,1,.005.011c.076.123.152.246.23.369.021.039.044.076.071.115a.417.417,0,0,0,.039.063.6.6,0,0,0,.034.052l.126.2c.042.068.084.136.128.207a84.394,84.394,0,0,0,5.729,8.019c.4.5.817,1,1.233,1.5q1.264,1.5,2.6,2.939v0c.217.23.429.458.649.688q1.417,1.5,2.915,2.928,1.178,1.135,2.408,2.219.9.8,1.834,1.578,2.328,1.947,4.807,3.734,1.484,1.068,3.02,2.078t3.125,1.958l3.253,1.937,1.628-.966,1.625-.968c.22-.131.44-.262.659-.4q.985-.6,1.955-1.222,1.288-.832,2.541-1.706c.416-.293.832-.586,1.243-.885s.822-.6,1.227-.905.809-.615,1.209-.927.8-.625,1.188-.945q1.413-1.15,2.777-2.35c.654-.581,1.3-1.167,1.934-1.766q.809-.757,1.6-1.539l2.052-2.107L289.383,96.2c.406-.625.806-1.254,1.2-1.89.024-.039.05-.079.073-.12s.047-.076.071-.115q1.323-2.171,2.515-4.42c.052-.092.1-.186.147-.28q.62-1.166,1.2-2.358c.042-.081.081-.165.123-.249a.133.133,0,0,0,.008-.018c.045-.092.086-.183.131-.275a.1.1,0,0,0,.01-.024v0q.616-1.288,1.188-2.6c.052-.118.1-.238.154-.358h0q.475-1.1.919-2.217c.047-.12.1-.241.141-.364,0,0,0,0,0,0v0c.026-.065.052-.131.076-.2l.039-.1c.013-.034.023-.065.037-.1q.29-.742.565-1.492c.052-.149.107-.3.157-.445a.16.16,0,0,1,.013-.031.121.121,0,0,0,.011-.029.6.6,0,0,0,.021-.063h0c.016-.039.029-.079.042-.12v0c.283-.785.55-1.578.806-2.374v0c.016-.042.029-.081.042-.123l.039-.126c.136-.424.267-.848.4-1.274.175-.581.345-1.162.508-1.748s.319-1.172.471-1.761c.167-.662.33-1.329.484-2s.3-1.337.437-2.01c.2-1.01.4-2.025.565-3.046.058-.338.113-.68.165-1.021q.141-.911.262-1.827c.039-.3.079-.61.115-.916l.505-4.156Zm-78.981-10.35.058-.026,1.644-.73.379-.167q1.135-.506,2.279-.971a.216.216,0,0,1,.063-.026c.249-.1.5-.2.746-.3a.19.19,0,0,1,.034-.013c.262-.1.518-.207.78-.306.092-.039.186-.073.277-.11.165-.065.335-.128.5-.189a.181.181,0,0,1,.034-.013c.06-.024.118-.045.178-.066l0,0c.212-.081.424-.157.638-.233a.309.309,0,0,1,.063-.024l.131-.047c.052-.021.107-.039.16-.058l.291-.1c.215-.076.429-.152.644-.225s.429-.144.644-.215c.139-.05.28-.1.421-.141.076-.024.149-.05.225-.071s.123-.042.186-.06c.107-.037.217-.071.327-.1l.139-.044.228-.071c.076-.024.154-.05.23-.071s.126-.039.189-.057c.162-.052.327-.1.492-.152q1.013-.3,2.028-.578c.254-.068.51-.136.764-.2q.765-.2,1.536-.385c.144-.034.288-.068.432-.1.037-.01.073-.018.11-.026s.065-.018.1-.024l.128-.031c.466-.107.934-.212,1.405-.306.244-.055.489-.1.733-.152.3-.063.594-.12.893-.175h.008c.12-.024.238-.047.359-.068.175-.037.353-.068.528-.1.005,0,.011-.005.016,0,.123-.024.244-.044.366-.063.434-.079.869-.149,1.306-.217.343-.055.688-.107,1.034-.154.089-.016.181-.029.272-.039l.052-.008h.01l.016,0,.016,0c.081-.013.165-.026.246-.037.249-.034.5-.068.746-.1l.018,0,.026,0c.039-.005.076-.01.112-.013s.073-.008.11-.013c.131-.018.262-.031.4-.047.186-.024.374-.045.563-.066.353-.042.709-.079,1.062-.112.413-.039.83-.079,1.243-.11.175-.016.353-.029.529-.042l.094-.008c.118-.01.233-.018.351-.026a.009.009,0,0,1,.005,0c.149-.01.3-.021.453-.029a.139.139,0,0,0,.034,0h.013c.029,0,.06,0,.091-.005l.495-.031c.034,0,.071,0,.1-.005.291-.018.578-.031.869-.044l.207-.008a.293.293,0,0,0,.05,0c.026,0,.052,0,.079,0s.063,0,.094,0l.429-.016c.288-.01.573-.018.861-.026.175-.005.353-.008.529-.01.324-.005.649-.011.973-.013h.034q1.225.008,2.45.055l.131.005c.089,0,.178.005.267.01l.076.005c.267.01.537.024.8.037.189.008.374.018.563.034l.126.008c.058,0,.118.005.175.01s.12.005.181.011c.034,0,.066,0,.1.005h.021l.076.005.144.008a.514.514,0,0,0,.063.005c.094.005.186.013.28.021.243.018.487.037.728.058.039.005.076.008.113.011l.078.008c.146.011.291.024.434.039l.073.005.029,0h0a.01.01,0,0,0,.008,0,.119.119,0,0,1,.031,0l.1.008a.033.033,0,0,0,.016,0c.191.016.382.034.576.052.084.01.17.018.254.026l.031.005c.089.008.178.018.264.029l.071.008c.013,0,.029,0,.042.005l.042.005.052.005.033,0,.307.035h.016l.006,0h.04a.021.021,0,0,1,.01,0h.008l.018,0a.214.214,0,0,1,.042.006h.019s0,0,0,0h.01l.018,0,.139.016h0l.055.006,0,0h.005l.044.005a.229.229,0,0,1,.042.005h.008l.377.047.557.073c.165.021.327.044.489.065q.985.138,1.963.3c.293.047.584.1.874.147.343.06.686.123,1.028.186q.946.181,1.887.382a.081.081,0,0,1,.034.008,80.8,80.8,0,0,1,9.2,2.533c.037.011.073.021.107.034l.008,0c.131.045.264.089.4.139q.872.3,1.73.618,2.477.922,4.9,2l.573.256,1.5.673-.2,2.256c-.021.256-.031.516-.037.772q0,.172.008.345c0,.042,0,.081.005.12s0,.084.008.123c.005.091.011.183.021.272s.018.186.031.28a.18.18,0,0,0,.005.037c.005.06.013.118.023.175,0,.031.005.06.011.089,0,.013,0,.024.005.037s0,.021.005.031a.015.015,0,0,0,0,.01l.023.134q.024.145.055.291h0a.046.046,0,0,0,0,.018s0,.005,0,.008,0,.008,0,.013c.026.115.052.228.081.338.031.126.065.251.1.374s.076.246.118.366a.016.016,0,0,0,.005.013c.029.094.063.186.1.28q.11.286.236.565c.086.186.175.369.272.55a8.286,8.286,0,0,0,.474.79c.112.17.233.338.356.5a8.456,8.456,0,0,0,.6.707c.071.076.141.149.215.223.018.018.037.036.055.052a.551.551,0,0,1,.058.052.2.2,0,0,1,.023.024c.029.024.06.052.089.079.084.081.167.16.254.236s.175.154.264.228.181.146.272.217.186.139.283.207c.029.021.06.042.092.06s.06.037.092.055l.036.024c.079.052.154.1.236.152l.01.008c.034.021.071.045.1.068s.068.044.1.065l1.808,1.05-.249,2.078q-.2,1.656-.466,3.295c-.06.364-.123.728-.186,1.091q-.232,1.3-.5,2.6v0c-.162.764-.335,1.528-.516,2.287q-.138.569-.283,1.138c-.1.385-.2.77-.3,1.152q-.471,1.723-1.01,3.415a1.16,1.16,0,0,1-.039.126c-.013.042-.026.081-.039.123v0h0c-.081.262-.165.521-.251.78-.2.589-.4,1.175-.612,1.758a.954.954,0,0,1-.045.12v0c-.013.042-.029.084-.044.123-.071.2-.141.4-.217.591v0c-.042.118-.086.233-.131.348s-.086.236-.131.351c-.063.165-.128.332-.194.5-.039.1-.081.209-.123.314q-.534,1.354-1.115,2.688c-.039.094-.081.186-.123.28q-.573,1.307-1.2,2.6c-.016.031-.031.063-.047.1l-.123.249q-.667,1.366-1.384,2.706c-.039.071-.076.141-.115.215h0c-.131.243-.264.487-.4.728q-.4.726-.817,1.445c-.141.241-.28.479-.421.717-.189.317-.379.633-.571.948-.157.254-.314.507-.474.759v0c-.023.039-.047.079-.073.115s-.047.079-.073.118q-1.535,2.438-3.245,4.76c-.228.311-.461.62-.691.926q-.491.648-.995,1.285c-.335.426-.675.848-1.021,1.269-.23.28-.46.558-.693.835q-.467.549-.945,1.1-.816.934-1.667,1.845-1.123,1.213-2.3,2.379c-.139.139-.28.277-.421.411-.529.521-1.062,1.028-1.607,1.528a81.348,81.348,0,0,1-13.69,10.23l-1.609.971-1.628-.968c-.2-.12-.4-.241-.6-.361s-.4-.244-.6-.366q-1.79-1.107-3.507-2.3-.459-.318-.911-.641-.907-.648-1.793-1.316t-1.754-1.363q-1.3-1.04-2.554-2.125t-2.452-2.222c-.131-.123-.262-.243-.39-.366l-.385-.371c-.256-.249-.513-.5-.764-.749q-1.382-1.374-2.7-2.808A81.348,81.348,0,0,1,229.833,93.9c-.026-.039-.052-.078-.076-.12h0c-.024-.037-.047-.073-.071-.113q-1.429-2.253-2.709-4.6c-.044-.079-.086-.157-.128-.238,0,0,0,0,0,0v0c-.066-.118-.128-.236-.194-.356-.183-.34-.361-.683-.539-1.026q-.326-.632-.641-1.272c-.05-.094-.094-.189-.139-.283q-.385-.777-.749-1.565c-.084-.175-.162-.35-.243-.526s-.16-.351-.238-.529a.172.172,0,0,1-.008-.018c-.018-.037-.034-.076-.052-.113-.023-.055-.047-.107-.071-.162v0a.229.229,0,0,1-.018-.045c-.039-.084-.076-.167-.112-.254-.225-.51-.442-1.021-.654-1.536-.058-.139-.115-.277-.173-.419s-.112-.28-.167-.421c-.034-.076-.066-.154-.1-.233-.013-.039-.029-.079-.047-.12v0c-.115-.291-.228-.584-.34-.877-.081-.209-.16-.416-.236-.625-.031-.086-.06-.17-.092-.256a.959.959,0,0,1-.047-.121c-.016-.039-.031-.081-.044-.123-.034-.094-.071-.188-.1-.285s-.068-.191-.1-.285c-.068-.189-.136-.379-.2-.57v0c-.126-.366-.251-.735-.374-1.1-.021-.066-.044-.128-.065-.2v0a.6.6,0,0,0-.021-.063c-.005-.021-.013-.042-.018-.063a1.173,1.173,0,0,1-.039-.123h0a81.7,81.7,0,0,1-3.434-15.566l-.246-2.059v0l1.787-1.054a.628.628,0,0,0,.068-.042h0c.175-.1.343-.215.51-.33s.325-.236.482-.359a9.529,9.529,0,0,0,.887-.8c.071-.073.141-.147.212-.223a9.877,9.877,0,0,0,.767-.95c.076-.11.147-.222.22-.332,0,0,0,0,0-.005v0c.008-.013.016-.024.024-.037s.029-.044.044-.066l.044-.068c.034-.058.071-.115.1-.175s.065-.118.1-.175c.024-.042.047-.084.068-.126s.037-.063.055-.1c.039-.073.076-.149.115-.225.044-.091.089-.183.131-.277s.081-.188.12-.283c0,0,0-.008,0-.011.039-.089.073-.181.11-.272v0c.034-.094.068-.188.1-.285h0v0c.032-.1.063-.194.092-.291s.058-.194.086-.293.05-.2.073-.3c.047-.2.086-.4.12-.607s.06-.408.081-.615a9.41,9.41,0,0,0,.047-.945c0-.065,0-.134,0-.2s-.005-.128-.008-.194-.008-.144-.013-.215-.011-.123-.016-.186l-.149-1.6-.055-.589-.008-.071Zm-.819,7.445c0,.011-.008.018-.01.026.039-.073.076-.149.115-.225C222.788,52.623,222.754,52.688,222.717,52.754Zm1.324,30.386c.016.037.031.076.05.113h0C224.075,83.216,224.06,83.176,224.042,83.14Zm31.809-45.784c-.076,0-.154.005-.23.01l.429-.016C255.985,37.35,255.916,37.353,255.851,37.356Zm9.2.259-.228-.018c.146.011.291.024.434.039C265.183,37.628,265.115,37.62,265.047,37.615Zm2.128.215h-.011a.02.02,0,0,1,.013,0A0,0,0,0,0,267.175,37.829Zm-.029,0h0l.011,0,0,0S267.149,37.827,267.146,37.827Zm.068.008h0s0,0-.005,0h0a.01.01,0,0,0,.008,0h.005v0Zm-.023,0h-.005a.01.01,0,0,0,.008,0h.005l0,0S267.193,37.832,267.19,37.832Zm.042.005h0l.008,0h0A.009.009,0,0,0,267.232,37.837Zm.023,0a.009.009,0,0,0-.005,0,0,0,0,0,0,0,0,.023.023,0,0,1,.013,0h0v0Zm.094.011h0a0,0,0,0,1,0,0h.005A.008.008,0,0,0,267.35,37.85Zm27.036,41.678c-.039.1-.081.209-.123.314q-.534,1.354-1.115,2.688c.005,0,.008,0,.01,0q.581-1.331,1.112-2.688c.044-.1.084-.209.123-.314.063-.16.126-.317.186-.476v-.024C294.517,79.2,294.452,79.364,294.386,79.528ZM222.717,52.754c0,.011-.008.018-.01.026.039-.073.076-.149.115-.225C222.788,52.623,222.754,52.688,222.717,52.754Zm1.324,30.386c.016.037.031.076.05.113h0C224.075,83.216,224.06,83.176,224.042,83.14Zm31.809-45.784c-.076,0-.154.005-.23.01l.429-.016C255.985,37.35,255.916,37.353,255.851,37.356Zm11.407.484,0,0h0v0Zm27.128,41.689c-.039.1-.081.209-.123.314q-.534,1.354-1.115,2.688c.005,0,.008,0,.01,0q.581-1.331,1.112-2.688c.044-.1.084-.209.123-.314.063-.16.126-.317.186-.476v-.024C294.517,79.2,294.452,79.364,294.386,79.528ZM222.717,52.754c0,.011-.008.018-.01.026.039-.073.076-.149.115-.225C222.788,52.623,222.754,52.688,222.717,52.754Zm1.324,30.386c.016.037.031.076.05.113h0C224.075,83.216,224.06,83.176,224.042,83.14Zm43.133-45.311h-.011a.02.02,0,0,1,.013,0A0,0,0,0,0,267.175,37.829Zm-.024,0,0,0h.01l-.008,0Zm.063.008s0,0,0,0v0Zm.044.005,0,0h0v0Zm27.128,41.689c-.039.1-.081.209-.123.314q-.534,1.354-1.115,2.688c.005,0,.008,0,.01,0q.581-1.331,1.112-2.688c.044-.1.084-.209.123-.314.063-.16.126-.317.186-.476v-.024C294.517,79.2,294.452,79.364,294.386,79.528ZM224.042,83.14c.016.037.031.076.05.113h0C224.075,83.216,224.06,83.176,224.042,83.14Zm70.345-3.611c-.039.1-.081.209-.123.314,0,0,0,0,0,0a.009.009,0,0,1,.005,0c.044-.1.084-.209.123-.314.063-.16.126-.317.186-.476v-.024C294.517,79.2,294.452,79.364,294.386,79.528Z" transform="translate(0)" fill="#fff"/>
    <g id="Group_1295" data-name="Group 1295" transform="translate(262.721 107.508)">
      <path id="Path_481" data-name="Path 481" d="M440.652,394.56a.437.437,0,0,1-.134-.853c.089-.029,8.954-2.9,14.9-7.271,8.094-5.952,10.624-11.742,10.648-11.8a.437.437,0,0,1,.8.341c-.1.244-2.631,6.056-10.935,12.162-6.059,4.456-15.057,7.37-15.147,7.4A.444.444,0,0,1,440.652,394.56Z" transform="translate(-440.215 -374.37)" fill="#d0b659"/>
    </g>
    <g id="Group_1296" data-name="Group 1296" transform="translate(281.293 116.279)">
      <path id="Path_482" data-name="Path 482" d="M529.779,423.244a3.105,3.105,0,0,1-3.069-2.671,2.567,2.567,0,0,1,2.188-2.9,2.141,2.141,0,0,1,2.417,1.824,1.8,1.8,0,0,1-1.534,2.032c-.242.033.7-.469.669-1.911a1.122,1.122,0,0,0-.492-.836,1.268,1.268,0,0,0-.939-.243,1.693,1.693,0,0,0-1.443,1.912,2.229,2.229,0,0,0,2.513,1.9,2.9,2.9,0,0,0,2.464-3.264,3.672,3.672,0,0,0-1.438-2.616c-.972-.649-2.4-.732-4.245-.251a.437.437,0,1,1-.221-.846c2.1-.547,3.763-.424,4.951.369a4.442,4.442,0,0,1,1.818,3.222,3.77,3.77,0,0,1-3.208,4.251A3.134,3.134,0,0,1,529.779,423.244Z" transform="translate(-526.322 -415.037)" fill="#d0b659"/>
    </g>
    <g id="Group_1297" data-name="Group 1297" transform="translate(279.28 109.069)">
      <path id="Path_483" data-name="Path 483" d="M522.32,386.912a.437.437,0,0,1-.421-.553,3.56,3.56,0,0,0-.12-2.878,2.454,2.454,0,0,0-1.734-.977,1.9,1.9,0,0,0-2.167,1.591,1.434,1.434,0,0,0,1.2,1.634,1.059,1.059,0,0,0,1.208-.886.807.807,0,0,0-.139-.565c-.759-1.168-1.991.241-1.955,0a1.395,1.395,0,0,1,1.59-1.167,1.633,1.633,0,0,1,1.367,1.862,1.933,1.933,0,0,1-2.2,1.618,2.309,2.309,0,0,1-1.931-2.63,2.774,2.774,0,0,1,3.163-2.322,3.245,3.245,0,0,1,2.336,1.365,4.356,4.356,0,0,1,.229,3.585A.437.437,0,0,1,522.32,386.912Z" transform="translate(-516.987 -381.608)" fill="#d0b659"/>
    </g>
    <path id="Path_484" data-name="Path 484" d="M449.361,432.861a62.373,62.373,0,0,0,9.916-4.161,61.308,61.308,0,0,0,7.791-5.5,5.292,5.292,0,0,0-1.353,3.658,3.732,3.732,0,0,0,2.174,3.116s-5.182.827-6.269-1.278C460.566,430.515,455.592,432.861,449.361,432.861Z" transform="translate(-184.667 -305.164)" fill="#186634"/>
    <path id="Path_485" data-name="Path 485" d="M555.688,356.261a1.547,1.547,0,0,1,1.023-.3s-1.96-1.809-2.68-.3c.72-1.5-1.919-1.9-1.919-1.9s.479.546.406.987-1.055,1.172-1.861,2.334a2.455,2.455,0,1,0,4.382,2.1C555.438,357.819,555.391,356.595,555.688,356.261Z" transform="translate(-263.741 -250.696)" fill="#186634"/>
    <path id="Path_486" data-name="Path 486" d="M569.423,347.566a.838.838,0,0,1-1.511-.723,12.857,12.857,0,0,1,1.761-1.741A12.883,12.883,0,0,1,569.423,347.566Z" transform="translate(-277.584 -243.907)" fill="#d0b659"/>
    <path id="Path_487" data-name="Path 487" d="M567.75,402.881c.284-.01.589.336.589.336s-.031-1.7-1.038-1.364c1.007-.331.027-1.714.027-1.714s-.04.46-.275.62a14.342,14.342,0,0,1-1.889.171,1.56,1.56,0,1,0,.963,2.933C566.925,403.45,567.467,402.891,567.75,402.881Z" transform="translate(-274.46 -287.073)" fill="#186634"/>
    <path id="Path_488" data-name="Path 488" d="M583.239,404.944a.532.532,0,1,1-.332-1.011,8.166,8.166,0,0,1,1.573.043A8.193,8.193,0,0,1,583.239,404.944Z" transform="translate(-289.121 -290.024)" fill="#d0b659"/>
    <path id="Path_489" data-name="Path 489" d="M536.609,366.75c.081-.2.417-.3.417-.3s-1.185-.509-1.271.293c.086-.8-1.18-.555-1.18-.555s.307.172.344.384a10.911,10.911,0,0,1-.472,1.363,1.187,1.187,0,1,0,2.335.25A10.926,10.926,0,0,1,536.609,366.75Z" transform="translate(-251.365 -260.415)" fill="#186634"/>
    <path id="Path_490" data-name="Path 490" d="M540.049,360.756a.4.4,0,0,1-.805-.086,6.221,6.221,0,0,1,.522-1.077A6.231,6.231,0,0,1,540.049,360.756Z" transform="translate(-255.161 -255.272)" fill="#d0b659"/>
    <path id="Path_491" data-name="Path 491" d="M459.97,419.353a31.233,31.233,0,0,0,6.846-3.165,39.371,39.371,0,0,0,7.465-5.645,1.332,1.332,0,0,1-1.6-.364c-.819-.819-3.2,3.5-3.2,3.5a5.083,5.083,0,0,0-2.549.219C466.092,414.375,459.97,419.353,459.97,419.353Z" transform="translate(-192.988 -294.867)" fill="#186634"/>
    <path id="Path_492" data-name="Path 492" d="M543.61,396.409a21.963,21.963,0,0,0,2.05-1.989,17.575,17.575,0,0,0,1.76-2.32,2.93,2.93,0,0,1,.576,2.16c-.291,1-1.633,1.056-1.633,1.056a14.859,14.859,0,0,1,.938,4.233,5.516,5.516,0,0,0-1.63-2.5A4.633,4.633,0,0,0,543.61,396.409Z" transform="translate(-258.588 -280.769)" fill="#186634"/>
    <g id="Group_1298" data-name="Group 1298" transform="translate(227.297 107.508)">
      <path id="Path_493" data-name="Path 493" d="M302.225,394.56a.437.437,0,0,0,.134-.853c-.089-.029-8.954-2.9-14.9-7.271-8.093-5.952-10.624-11.742-10.648-11.8a.437.437,0,0,0-.8.341c.1.244,2.631,6.056,10.935,12.162,6.059,4.456,15.057,7.37,15.147,7.4A.445.445,0,0,0,302.225,394.56Z" transform="translate(-275.975 -374.37)" fill="#d0b659"/>
    </g>
    <g id="Group_1300" data-name="Group 1300" transform="translate(228.28 116.279)">
      <g id="Group_1299" data-name="Group 1299">
        <path id="Path_494" data-name="Path 494" d="M284.206,423.244a3.1,3.1,0,0,0,3.069-2.671,2.567,2.567,0,0,0-2.188-2.9,2.14,2.14,0,0,0-2.417,1.824,1.8,1.8,0,0,0,1.534,2.032c.242.033-.7-.469-.669-1.911a1.122,1.122,0,0,1,.492-.836,1.268,1.268,0,0,1,.939-.243,1.693,1.693,0,0,1,1.443,1.912,2.229,2.229,0,0,1-2.513,1.9,2.9,2.9,0,0,1-2.464-3.264,3.672,3.672,0,0,1,1.438-2.616c.972-.649,2.4-.732,4.245-.251a.437.437,0,0,0,.221-.846c-2.1-.547-3.763-.424-4.951.369a4.442,4.442,0,0,0-1.818,3.222,3.77,3.77,0,0,0,3.208,4.251A3.133,3.133,0,0,0,284.206,423.244Z" transform="translate(-280.531 -415.037)" fill="#d0b659"/>
      </g>
    </g>
    <g id="Group_1302" data-name="Group 1302" transform="translate(231.409 109.069)">
      <g id="Group_1301" data-name="Group 1301">
        <path id="Path_495" data-name="Path 495" d="M295.723,386.912a.438.438,0,0,0,.422-.553,3.558,3.558,0,0,1,.12-2.878A2.454,2.454,0,0,1,298,382.5a1.9,1.9,0,0,1,2.167,1.591,1.434,1.434,0,0,1-1.2,1.634,1.059,1.059,0,0,1-1.208-.886.809.809,0,0,1,.139-.565c.759-1.168,1.991.241,1.955,0a1.395,1.395,0,0,0-1.59-1.167,1.633,1.633,0,0,0-1.367,1.862,1.934,1.934,0,0,0,2.2,1.618,2.309,2.309,0,0,0,1.931-2.63,2.774,2.774,0,0,0-3.163-2.322,3.244,3.244,0,0,0-2.336,1.365,4.356,4.356,0,0,0-.229,3.585A.437.437,0,0,0,295.723,386.912Z" transform="translate(-295.04 -381.608)" fill="#d0b659"/>
      </g>
    </g>
    <path id="Path_496" data-name="Path 496" d="M323.188,432.861a62.375,62.375,0,0,1-9.916-4.161,61.311,61.311,0,0,1-7.791-5.5,5.292,5.292,0,0,1,1.353,3.658,3.732,3.732,0,0,1-2.174,3.116s5.182.827,6.269-1.278C311.982,430.515,316.956,432.861,323.188,432.861Z" transform="translate(-71.176 -305.164)" fill="#186634"/>
    <path id="Path_497" data-name="Path 497" d="M260.487,356.261a1.547,1.547,0,0,0-1.023-.3s1.96-1.809,2.68-.3c-.72-1.5,1.919-1.9,1.919-1.9s-.479.546-.406.987,1.055,1.172,1.861,2.334a2.455,2.455,0,1,1-4.382,2.1C260.737,357.819,260.784,356.595,260.487,356.261Z" transform="translate(-35.728 -250.696)" fill="#186634"/>
    <path id="Path_498" data-name="Path 498" d="M263.8,347.566a.838.838,0,0,0,1.511-.723,12.872,12.872,0,0,0-1.762-1.741A12.883,12.883,0,0,0,263.8,347.566Z" transform="translate(-38.929 -243.907)" fill="#d0b659"/>
    <path id="Path_499" data-name="Path 499" d="M255.841,402.881c-.283-.01-.589.336-.589.336s.031-1.7,1.038-1.364c-1.007-.331-.027-1.714-.027-1.714s.04.46.275.62a14.342,14.342,0,0,0,1.889.171,1.56,1.56,0,1,1-.964,2.933C256.666,403.45,256.124,402.891,255.841,402.881Z" transform="translate(-32.424 -287.073)" fill="#186634"/>
    <path id="Path_500" data-name="Path 500" d="M249.63,404.944a.532.532,0,0,0,.332-1.011,8.169,8.169,0,0,0-1.573.043A8.182,8.182,0,0,0,249.63,404.944Z" transform="translate(-27.042 -290.024)" fill="#d0b659"/>
    <path id="Path_501" data-name="Path 501" d="M293.769,366.75c-.081-.2-.417-.3-.417-.3s1.185-.509,1.27.293c-.086-.8,1.18-.555,1.18-.555s-.306.172-.344.384a10.861,10.861,0,0,0,.472,1.363,1.187,1.187,0,1,1-2.335.25A10.93,10.93,0,0,0,293.769,366.75Z" transform="translate(-62.307 -260.415)" fill="#186634"/>
    <path id="Path_502" data-name="Path 502" d="M296.933,360.756a.4.4,0,0,0,.805-.086,6.219,6.219,0,0,0-.522-1.077A6.229,6.229,0,0,0,296.933,360.756Z" transform="translate(-65.115 -255.272)" fill="#d0b659"/>
    <path id="Path_503" data-name="Path 503" d="M327.912,419.353a31.239,31.239,0,0,1-6.846-3.165,39.367,39.367,0,0,1-7.465-5.645,1.332,1.332,0,0,0,1.6-.364c.819-.819,3.2,3.5,3.2,3.5a5.084,5.084,0,0,1,2.549.219C321.79,414.375,327.912,419.353,327.912,419.353Z" transform="translate(-78.188 -294.867)" fill="#186634"/>
    <path id="Path_504" data-name="Path 504" d="M280.144,396.409a21.958,21.958,0,0,1-2.05-1.989,17.568,17.568,0,0,1-1.76-2.32,2.931,2.931,0,0,0-.577,2.16c.291,1,1.633,1.056,1.633,1.056a14.859,14.859,0,0,0-.938,4.233,5.515,5.515,0,0,1,1.63-2.5A4.631,4.631,0,0,1,280.144,396.409Z" transform="translate(-48.46 -280.769)" fill="#186634"/>
    <path id="Path_505" data-name="Path 505" d="M333.8,482a57.422,57.422,0,0,1-11.141,2.627,44.783,44.783,0,0,0,7.426-1.712c2.2-.673,4.382-1.431,6.53-2.251l-.518-1.893q-1.145.4-2.3.768a57.438,57.438,0,0,1-11.141,2.628,44.8,44.8,0,0,0,7.426-1.712c1.994-.61,3.969-1.289,5.92-2.02l-.523-1.912q-.839.283-1.682.555a57.44,57.44,0,0,1-11.141,2.628,44.826,44.826,0,0,0,7.426-1.712q2.679-.819,5.309-1.791l-.709-2.59a79.552,79.552,0,0,1-57.79,0l-.684,2.5q.966.357,1.939.7a57.238,57.238,0,0,0,11.045,2.9,44.978,44.978,0,0,1-7.483-1.53q-2.824-.787-5.591-1.738l-.521,1.9q1.268.478,2.55.928a57.222,57.222,0,0,0,11.045,2.9,44.928,44.928,0,0,1-7.483-1.53c-2.092-.583-4.158-1.239-6.206-1.954l-.517,1.887q1.568.605,3.16,1.16a57.219,57.219,0,0,0,11.045,2.9,44.953,44.953,0,0,1-7.483-1.53c-2.3-.641-4.572-1.37-6.82-2.169l-.5,1.824a86.442,86.442,0,0,0,62.792,0l-.475-1.736Q335.264,481.525,333.8,482Z" transform="translate(-47.439 -344.697)" fill="#fff"/>
    <path id="Path_506" data-name="Path 506" d="M276.9,473.609a79.552,79.552,0,0,0,57.79,0q1.25,4.57,2.5,9.139a86.442,86.442,0,0,1-62.792,0Q275.647,478.178,276.9,473.609Z" transform="translate(-47.439 -344.697)" fill="none"/>
    <g id="Group_1303" data-name="Group 1303" transform="translate(246.037 136.359)">
      <path id="Path_507" data-name="Path 507" d="M364.255,509.721l-.113.788,1.272.181-.1.733-1.271-.182-.122.855,1.438.205-.109.761-2.387-.341.556-3.9,2.387.341-.108.761Z" transform="translate(-362.858 -508.676)"/>
      <path id="Path_508" data-name="Path 508" d="M377.91,514.844a1.26,1.26,0,0,1-.5-.467,1.135,1.135,0,0,1-.149-.68l1.015.1a.5.5,0,0,0,.118.347.486.486,0,0,0,.323.148.526.526,0,0,0,.345-.064.329.329,0,0,0,.15-.258.323.323,0,0,0-.074-.25.787.787,0,0,0-.224-.18,3.856,3.856,0,0,0-.391-.18,4.443,4.443,0,0,1-.6-.3,1.148,1.148,0,0,1-.378-.387.969.969,0,0,1-.113-.614,1.032,1.032,0,0,1,.482-.817,1.638,1.638,0,0,1,1.063-.206,1.656,1.656,0,0,1,1.012.414,1.114,1.114,0,0,1,.338.9l-1.032-.1a.406.406,0,0,0-.11-.313.5.5,0,0,0-.318-.142.414.414,0,0,0-.288.064.334.334,0,0,0-.132.255.33.33,0,0,0,.149.314,2.917,2.917,0,0,0,.535.284,5.237,5.237,0,0,1,.592.307,1.182,1.182,0,0,1,.376.382.915.915,0,0,1,.116.592,1.131,1.131,0,0,1-.231.591,1.2,1.2,0,0,1-.537.386,1.7,1.7,0,0,1-.781.086A2.023,2.023,0,0,1,377.91,514.844Z" transform="translate(-374.149 -510.403)"/>
      <path id="Path_509" data-name="Path 509" d="M396.547,512.328l-.043.767-1.042-.058-.176,3.164-.957-.053.176-3.164-1.041-.058.043-.767Z" transform="translate(-386.863 -511.291)"/>
      <path id="Path_510" data-name="Path 510" d="M408.993,527.494a.481.481,0,0,1-.151-.371.5.5,0,0,1,.169-.372.573.573,0,0,1,.415-.142.566.566,0,0,1,.4.161.5.5,0,0,1,.151.379.481.481,0,0,1-.168.363.573.573,0,0,1-.41.139A.579.579,0,0,1,408.993,527.494Z" transform="translate(-398.923 -522.625)"/>
      <path id="Path_511" data-name="Path 511" d="M422.006,515.143q.538-.467.848-.766a3.577,3.577,0,0,0,.521-.624,1.1,1.1,0,0,0,.2-.627.549.549,0,0,0-.115-.356.443.443,0,0,0-.653.046.737.737,0,0,0-.11.454l-.925.022a1.587,1.587,0,0,1,.186-.8,1.19,1.19,0,0,1,.5-.483,1.609,1.609,0,0,1,.7-.168,1.358,1.358,0,0,1,1.014.318,1.213,1.213,0,0,1,.36.883,1.749,1.749,0,0,1-.383,1.122,6.018,6.018,0,0,1-1.019,1.025l1.514-.036.018.779-2.814.066-.017-.712Q422.022,515.132,422.006,515.143Z" transform="translate(-409.069 -511.041)"/>
      <path id="Path_512" data-name="Path 512" d="M437.162,511.776a1.58,1.58,0,0,1,2.4-.164,3.307,3.307,0,0,1,.208,3.044,1.581,1.581,0,0,1-2.4.164,3.305,3.305,0,0,1-.208-3.043Zm1.753.53a.579.579,0,0,0-1.018.069,2.416,2.416,0,0,0-.064.878,3.648,3.648,0,0,0,.088.626.806.806,0,0,0,.209.391.613.613,0,0,0,.811-.056.81.81,0,0,0,.154-.415,3.712,3.712,0,0,0,0-.632A2.424,2.424,0,0,0,438.915,512.306Z" transform="translate(-420.917 -510.488)"/>
      <path id="Path_513" data-name="Path 513" d="M453.72,513.053q.495-.513.777-.839a3.6,3.6,0,0,0,.463-.668,1.1,1.1,0,0,0,.147-.643.548.548,0,0,0-.146-.345.444.444,0,0,0-.646.1.738.738,0,0,0-.069.462l-.919.1a1.587,1.587,0,0,1,.114-.814,1.188,1.188,0,0,1,.454-.526,1.612,1.612,0,0,1,.682-.23,1.36,1.36,0,0,1,1.039.226,1.211,1.211,0,0,1,.438.848,1.75,1.75,0,0,1-.281,1.152,6.038,6.038,0,0,1-.923,1.112l1.5-.171.088.774-2.8.317-.08-.707Q453.736,513.04,453.72,513.053Z" transform="translate(-433.807 -509.319)"/>
      <path id="Path_514" data-name="Path 514" d="M467,509.245l-.131-.882,1.536-.228.6,4.049-.987.147-.471-3.167Z" transform="translate(-444.439 -508.135)"/>
    </g>
    <path id="Path_515" data-name="Path 515" d="M457.732,223.625c-.071.084-.141.167-.215.249.444.473.861.934,1.219,1.35a2.069,2.069,0,0,1,1.27.943,1.623,1.623,0,0,1,.093,1.309,1.425,1.425,0,0,1-.614.72c-.046.067-.092.132-.136.195-.077.11-.149.211-.2.3a14.171,14.171,0,0,0-1.593,3.655c.005.052.014.1.022.151h.8c0-.048-.007-.1-.007-.145a3.276,3.276,0,1,1,6.552,0c0,.049-.005.1-.007.145h7.9a25.578,25.578,0,0,0,2.454-8.872Z" transform="translate(-191.064 -148.631)" fill="#44844d"/>
    <g id="Group_1304" data-name="Group 1304" transform="translate(267.623 80.758)">
      <path id="Path_516" data-name="Path 516" d="M463.692,261.611a2.985,2.985,0,0,0,.621.465l.033.019a4.132,4.132,0,0,1,.2-.384c.053-.092.107-.183.163-.279q-.084-.051-.163-.108a2.89,2.89,0,0,1-.232-.185,3.1,3.1,0,0,1-.621-.762l-.03-.053a4.38,4.38,0,0,1-.5-1.529,2.952,2.952,0,0,0-.226,1.137q0,.137.012.271a3.129,3.129,0,0,0,.5,1.121A2.337,2.337,0,0,0,463.692,261.611Z" transform="translate(-462.94 -256.974)" fill="#7f451d"/>
      <path id="Path_517" data-name="Path 517" d="M464.751,255.5a2.784,2.784,0,0,0,.588.73q.111.1.232.185.1.07.2.133c.086-.145.175-.28.268-.413s.2-.277.3-.422a5.568,5.568,0,0,1-.3-.5,8.256,8.256,0,0,1-.467-1.032q-.031-.084-.06-.168a5.528,5.528,0,0,1-.172-.607,2.454,2.454,0,0,1-.066-.721,2.96,2.96,0,0,0-.44.362c-.039.039-.078.08-.115.122a2.965,2.965,0,0,0-.47.708,4.439,4.439,0,0,0,.47,1.56Z" transform="translate(-463.967 -252.181)" fill="#7f451d"/>
      <path id="Path_518" data-name="Path 518" d="M464.766,269.4l-.009-.005a2.988,2.988,0,0,1-.621-.469,2.766,2.766,0,0,1-.3-.352,2.965,2.965,0,0,1-.329-.589,2.957,2.957,0,0,0,.63,1.127q.056.063.115.122a2.97,2.97,0,0,0,.435.359q.034-.086.071-.171Z" transform="translate(-463.385 -264.181)" fill="#7f451d"/>
      <path id="Path_519" data-name="Path 519" d="M469.536,251.348a3.9,3.9,0,0,1,.467-.269,3.77,3.77,0,0,1,1.531-.389,2.558,2.558,0,0,1,1.1.2,2.779,2.779,0,0,0-1.1-.483,3.211,3.211,0,0,0-.642-.063,2.949,2.949,0,0,0-1.355.328q-.1.052-.2.111l-.024.018a2.112,2.112,0,0,0,.042.674Q469.444,251.411,469.536,251.348Z" transform="translate(-467.932 -250.346)" fill="#7f451d"/>
      <path id="Path_520" data-name="Path 520" d="M471.785,252.32a3.585,3.585,0,0,0-1.53.387,3.72,3.72,0,0,0-.467.277c-.051.036-.1.072-.149.11a.042.042,0,0,1-.014.007,5.384,5.384,0,0,0,.163.579l.008.025c.04.118.085.237.132.355.1-.039.212-.076.327-.11a7.244,7.244,0,0,1,1.53-.284,6.465,6.465,0,0,1,1.167.012c.123.013.245.03.365.051a4.261,4.261,0,0,1,.629.16,2.752,2.752,0,0,0-.629-1.042l-.081-.083-.063-.061a2.211,2.211,0,0,0-.222-.127A2.514,2.514,0,0,0,471.785,252.32Z" transform="translate(-468.183 -251.894)" fill="#7f451d"/>
      <path id="Path_521" data-name="Path 521" d="M477.746,266.955q-.127.012-.256.021-.313.021-.635.024h-.222a6.713,6.713,0,0,1-.309.922,3.711,3.711,0,0,1-.912,1.365,2.774,2.774,0,0,0,.912-.063,2.973,2.973,0,0,0,.656-.239,3.464,3.464,0,0,0,.511-.763A2.517,2.517,0,0,0,477.746,266.955Z" transform="translate(-472.721 -263.373)" fill="#7f451d"/>
      <path id="Path_522" data-name="Path 522" d="M489.938,262.243c0,.067,0,.134-.007.2q-.008.144-.025.286-.019.163-.052.323l-.007.032v0l.006.036a2.032,2.032,0,0,1,.024.223q.015-.061.027-.122a2.99,2.99,0,0,0,.032-.981Z" transform="translate(-484.044 -259.677)" fill="#7f451d"/>
      <path id="Path_523" data-name="Path 523" d="M474.152,259.007a6.667,6.667,0,0,0-1.167-.037,6.545,6.545,0,0,0-1.53.261q-.155.047-.3.1c.093.225.195.445.3.648a5.878,5.878,0,0,0,.353.6c.4.035.792.061,1.178.071q.268.007.531,0c.209,0,.422-.014.636-.033q.183-.016.365-.04c.2-.025.4-.057.587-.093a4.658,4.658,0,0,0,.09-.689,3.618,3.618,0,0,0,0-.445c0-.042-.007-.083-.012-.122a4.853,4.853,0,0,0-.665-.173Q474.337,259.03,474.152,259.007Z" transform="translate(-469.383 -257.102)" fill="#7f451d"/>
      <path id="Path_524" data-name="Path 524" d="M484.477,266.579l-.037,0a2.676,2.676,0,0,1-.328,1.526,2.892,2.892,0,0,1-.258.382,2.613,2.613,0,0,0,.258-.174,2.779,2.779,0,0,0,.365-.335,2.961,2.961,0,0,0,.611-1.032,2.114,2.114,0,0,0,0-.461Q484.787,266.546,484.477,266.579Z" transform="translate(-479.343 -263.008)" fill="#7f451d"/>
      <path id="Path_525" data-name="Path 525" d="M471.5,267.615a6.224,6.224,0,0,0,.234-.718l-.234,0c-.381-.01-.768-.035-1.159-.069-.128.18-.252.362-.371.547q-.122.189-.235.383-.122.21-.232.429c-.084.168-.162.341-.232.518l-.009.023.009.006q.115.073.232.135a2.693,2.693,0,0,0,.467.193,2.791,2.791,0,0,0,.452.1A3.7,3.7,0,0,0,471.5,267.615Z" transform="translate(-467.899 -263.269)" fill="#7f451d"/>
    </g>
    <g id="Group_1308" data-name="Group 1308" transform="translate(235.322 87.598)">
      <path id="Path_526" data-name="Path 526" d="M313.641,286.906c.027.057,9.514,0,9.514,0s.842-1.4.421-1.878-1.094.426-1.094.426-.042-1.578-.211-1.326-.379-1.327-.673-.684-.421,1.42-.673.968-.083-1.97-.421-1.714-.248,1.488-.631.883-1.052-1.9-1.977-1.415-1.173,2.173-1.472,1.548-1.094-1.774-1.052-.89-1.119.056-.938.89-.671.392-.792.7S312.669,284.845,313.641,286.906Z" transform="translate(-313.181 -282.06)"/>
      <g id="Group_1307" data-name="Group 1307" transform="translate(0 0)">
        <path id="Path_527" data-name="Path 527" d="M313.641,286.906c.027.057,9.514,0,9.514,0s.842-1.4.421-1.878-1.094.426-1.094.426-.042-1.578-.211-1.326-.379-1.327-.673-.684-.421,1.42-.673.968-.083-1.97-.421-1.714-.248,1.488-.631.883-1.052-1.9-1.977-1.415-1.173,2.173-1.472,1.548-1.094-1.774-1.052-.89-1.119.056-.938.89-.671.392-.792.7S312.669,284.845,313.641,286.906Z" transform="translate(-313.181 -282.06)"/>
        <g id="Group_1306" data-name="Group 1306" clip-path="url(#clip-path)">
          <g id="Group_1305" data-name="Group 1305" transform="translate(4.346 -12.06)">
            <line id="Line_9" data-name="Line 9" x1="6.392" y1="23.614" transform="translate(0.835 0.238)" fill="#21201f"/>
            <line id="Line_10" data-name="Line 10" x1="6.392" y1="23.614" transform="translate(2.316)" fill="#21201f"/>
            <line id="Line_11" data-name="Line 11" x1="6.392" y1="23.614" transform="translate(0 2.764)" fill="#21201f"/>
          </g>
        </g>
      </g>
    </g>
    <path id="Path_529" data-name="Path 529" d="M373.326,146.323h0a2.484,2.484,0,0,0-.462-1.841c-.761-.7-3-.909-3.653-1.132-.244-.083-.476-.158-.7-.222-.16-.072-.406-.135-.471-.265a.973.973,0,0,1,.111-.542,1.833,1.833,0,0,0-.248.1,1.583,1.583,0,0,0-.318-.743.6.6,0,0,0-.751-.145.67.67,0,0,0-.144.792,1.634,1.634,0,0,0,.14.267,1.835,1.835,0,0,1-.2.052l-.178-.271-.106.348-.369-.491a1.1,1.1,0,0,1-.111.591l-.04-.138a1.758,1.758,0,0,0-.4-.8.649.649,0,0,0-.823-.105.738.738,0,0,0-.1.875,3.328,3.328,0,0,0,.574.766,1.122,1.122,0,0,1-.812-.167l.255.427a1.9,1.9,0,0,1-.642-.014.65.65,0,0,0,.529.265,5.308,5.308,0,0,1-1.084.394,3.678,3.678,0,0,0,1.232-.057,2.246,2.246,0,0,0-.242.537,2.054,2.054,0,0,0,.074,1.351,4.559,4.559,0,0,0,.006.637,12.6,12.6,0,0,0,.286,1.932,12.346,12.346,0,0,1,.371,1.839,2.513,2.513,0,0,1-.462,1.774,1.49,1.49,0,0,1-.784.455c-2.889-.278-3.729-3.184-4.208-3.875a13.9,13.9,0,0,0-1.53-1.923l-.02-.024.4.216a7.034,7.034,0,0,0-1.835-1.611,2.878,2.878,0,0,0-2.49-.025,3.275,3.275,0,0,0-1.678,1.625,1.754,1.754,0,0,1,.146-.117c-.237.309-.463.633-.7.938-.828,1.074-1.742,2.168-2.6,3.21a6.333,6.333,0,0,0-2.036,2.132c-.039.079-.076.16-.112.241a6.2,6.2,0,0,0-1.226,2.1c-.324.783-.648,1.571-.9,2.378a1.028,1.028,0,0,0-.466.211,2.428,2.428,0,0,0-1,1.794,3.137,3.137,0,0,1,.462-.471,2.207,2.207,0,0,0-.3,1.518,2.156,2.156,0,0,1,.519-.717q0,.237-.009.473a2.254,2.254,0,0,0,.276-.343,2.128,2.128,0,0,1,.339-.254,1.572,1.572,0,0,0,.55-.822,1.654,1.654,0,0,0-.046-1.249c.266-.755.511-1.518.842-2.247a8.637,8.637,0,0,1,.548-1.037c-.35.891-.074,3.2,0,4.149a4.186,4.186,0,0,1-.49,2.766c-.169.237-.383.441-.545.684a2.66,2.66,0,0,0-.353,1.783,8.384,8.384,0,0,0,.489,1.786,18.347,18.347,0,0,1,1.129,4.525,3.39,3.39,0,0,0,.115.767v0a.939.939,0,0,0,.333.773l-.01,0a.624.624,0,0,0,.067.046c.055.032.11.062.167.089a1.8,1.8,0,0,0,.352.128,1.55,1.55,0,0,0,.185.033q.32.038.642.061.643.047,1.288.037.322,0,.644-.024c.019,0,.038,0,.058-.006a.225.225,0,0,0,.1-.04.112.112,0,0,0,.033-.042.2.2,0,0,0-.043-.181,1.38,1.38,0,0,0-.133-.166c-.017-.018-.036-.034-.053-.051a1.34,1.34,0,0,0-.1-.093c-.023-.019-.048-.035-.073-.052s-.067-.047-.1-.067-.056-.03-.085-.044-.045-.025-.069-.035l.01.009c-.028-.012-.055-.028-.084-.038l.092.018.064.013.079.018.107.024.062.013.075.014.059.01c.025,0,.049.005.073.008l.055,0c.025,0,.049,0,.073,0s.033,0,.049,0a.57.57,0,0,0,.075-.016c.012,0,.026,0,.038-.009a.408.408,0,0,0,.1-.051.107.107,0,0,0,.016-.049.113.113,0,0,0,0-.017.119.119,0,0,0-.006-.033.418.418,0,0,0-.031-.051c-.006-.008-.013-.015-.021-.022s-.019-.02-.03-.03l-.029-.023-.039-.029-.037-.024-.047-.028-.044-.024-.055-.028-.049-.024-.021-.01h0a9.37,9.37,0,0,0-1.14-.408,1.9,1.9,0,0,1-1.391-1.087l0-.01c-.029-.19-.058-.381-.091-.571a24.912,24.912,0,0,0-.688-2.878,2.068,2.068,0,0,1-.031-1.7c.327-.5,1.008-.594,1.576-.79a5.058,5.058,0,0,0,2.268-1.8,1.57,1.57,0,0,1-.371,1.229,1.969,1.969,0,0,0-.372.442c-.156.343.089.715.316,1.028a21.276,21.276,0,0,1,2.825,5.3c.029.081.058.162.088.244-.011.282.041.7.031.875a.824.824,0,0,0,.216.641l.016.014h0l.02.015a.6.6,0,0,0,.049.038l.023.014c.018.012.037.023.056.033l.022.01c.021.01.041.019.062.028l.021.007.067.023.02.005.071.018.02,0,.073.014.018,0,.075.012.093.012q.32.038.642.061.643.047,1.288.037.323-.005.644-.024c.075,0,.164-.019.194-.088a.2.2,0,0,0-.043-.181,1.4,1.4,0,0,0-.131-.165c-.016-.018-.035-.033-.052-.05-.033-.032-.066-.064-.1-.093s-.047-.034-.071-.051-.068-.047-.1-.068-.054-.029-.082-.043-.04-.023-.061-.032l.011.009c-.033-.015-.066-.033-.1-.045.031,0,.064,0,.1,0h.064l.08,0,.064,0,.089.006.107.007.071,0,.069,0,.057,0,.064,0h.045a.541.541,0,0,0,.059-.009l.03,0a.19.19,0,0,0,.064-.029.1.1,0,0,0,.03-.047.084.084,0,0,0,0-.018.093.093,0,0,0,0-.035.168.168,0,0,0-.012-.023.212.212,0,0,0-.019-.035c-.006-.008-.016-.017-.023-.026s-.02-.024-.034-.037l-.033-.028c-.015-.013-.029-.025-.046-.038l-.041-.028c-.019-.013-.037-.027-.058-.04l-.047-.029-.069-.041-.052-.028-.077-.042-.006,0h0a7.369,7.369,0,0,0-1.124-.457,3.668,3.668,0,0,1-.756-.312q-.846-1.941-1.839-3.83a2.661,2.661,0,0,1-.462-2.084,3.767,3.767,0,0,1,.655-.954c.668-.843,1.366-1.133,1.936-2.165q.654.034,1.377.035a34.269,34.269,0,0,0,5-.36c-.044.674-.076,1.346-.068,2a1.989,1.989,0,0,0-.1,1.833,3.234,3.234,0,0,0-.156.739l-.369,3.221c-.057.5-.114,1.005-.127,1.509l-.221.46a2.438,2.438,0,0,0-.241.652c0,.019,0,.038-.007.057v0s0,.005,0,.008a1.014,1.014,0,0,0,0,.143c0,.007,0,.014,0,.022a.877.877,0,0,0,.019.14l0,.02a.739.739,0,0,0,.047.134l.007.013a.645.645,0,0,0,.08.125h0a1.185,1.185,0,0,0,.674.324,14.655,14.655,0,0,0,2.551.347.579.579,0,0,0,.058,0,.165.165,0,0,0,.145-.067.2.2,0,0,0-.024-.184h0l0-.008h0a1.409,1.409,0,0,0-.625-.6c.122.033.279.07.433.1h0l.011,0,.073.014.029.005.057.009.029,0,.055.008.025,0,.073.009h0l.061,0h.073l.03,0h.012a.1.1,0,0,0,.029-.009h0a.1.1,0,0,0,.022-.045.1.1,0,0,0,0-.019.128.128,0,0,0,0-.036.244.244,0,0,0-.01-.026.261.261,0,0,0-.017-.036c-.006-.01-.013-.02-.019-.03s-.008-.014-.013-.021h0a4.844,4.844,0,0,0-1.5-.969,3.393,3.393,0,0,1-.988-.605,15.6,15.6,0,0,1,.793-4.022,11.666,11.666,0,0,0,.4-1.113,1.318,1.318,0,0,0,.509-.709,1.7,1.7,0,0,0-.133-1.139h0c.131-.4.277-.875.426-1.4a3.856,3.856,0,0,0,.968-.95,2.893,2.893,0,0,1-.394,1.085,4.508,4.508,0,0,0,.561-.55q-.015.133-.03.266a5.756,5.756,0,0,0,.562-.505c.772.554,1.553,1.121,2.345,1.6a2.17,2.17,0,0,0,.252.385c-.03.077-.058.154-.083.229l-1.029,3.078c-.072.216-.144.432-.212.65h0a5.957,5.957,0,0,1-.976,1.091c-.181.146-.378.3-.386.531a.8.8,0,0,0,.091.374,2.136,2.136,0,0,0,.205.336,14.652,14.652,0,0,0,1.671,1.959c.054.053.124.109.2.086a.182.182,0,0,0,.1-.136.128.128,0,0,1-.016,0c0-.012.008-.024.011-.035a1.41,1.41,0,0,0-.066-.874c.114.177.289.7.595.671a.237.237,0,0,0,.061-.169h0a3.491,3.491,0,0,0-.373-1.64,3.37,3.37,0,0,1-.343-1.2c0-.008,0-.016,0-.025a14.518,14.518,0,0,1,1.645-3.8c.1-.16.25-.361.392-.574a1.1,1.1,0,0,0,.535-.587,1.289,1.289,0,0,0-.077-1.044,1.751,1.751,0,0,0-1.159-.8c-.408-.476-.924-1.048-1.486-1.64a9.5,9.5,0,0,0,.888-1.071q-.007.228-.015.455a4.29,4.29,0,0,0,1.063-2.455,10.915,10.915,0,0,0-.358-5.065c0,.006,0,.011,0,.016a13.862,13.862,0,0,0-.868-2.5,7.222,7.222,0,0,1-.5-1.292,1.648,1.648,0,0,1-.031-.18c0-.014,0-.028,0-.042-.006-.058-.01-.116-.01-.174a4.282,4.282,0,0,1,.9-.36,3.192,3.192,0,0,1,2,.061c.183.08.354.188.542.256a1.83,1.83,0,0,0,1.872-.323.118.118,0,0,0,.016-.007c.021-.016.044-.032.087-.168.011-.035.026-.106.038-.164,0-.016.007-.033.01-.05Zm-8.9,14.218a5.37,5.37,0,0,1-.212.783Q364.322,160.942,364.427,160.541Z" transform="translate(-101.679 -84.18)"/>
    <path id="Path_530" data-name="Path 530" d="M465.42,266.678a3.272,3.272,0,0,1-6.45,0h-.754a3.791,3.791,0,0,0,.2.5,3.9,3.9,0,0,1,.405,1.8.62.62,0,0,1-.013.107,25.313,25.313,0,0,1,2.429,1.006q.916.435,1.79.94a25.816,25.816,0,0,1,4.373,3.177,25.843,25.843,0,0,0,5.761-7.523Z" transform="translate(-191.612 -182.398)" fill="#5d9362"/>
    <g id="Group_1309" data-name="Group 1309" transform="translate(283.318 54.081)">
      <path id="Path_531" data-name="Path 531" d="M537.673,129.478a.036.036,0,0,1-.009-.019c0-.021,0-.042-.007-.063-.158-.642-1.034-1.176-1.566-.6a.946.946,0,0,0-.065,1.021.883.883,0,0,0,.878.489.028.028,0,0,1,.028.013.248.248,0,0,1,.11-.081.348.348,0,0,1,.147-.021l-.024-.022c-.092-.092-.2-.239-.122-.37a.306.306,0,0,1,.393-.062.566.566,0,0,1,.162.116.475.475,0,0,1,0-.28.306.306,0,0,1,.073-.115Z" transform="translate(-535.865 -128.144)" fill="#d0b659"/>
      <path id="Path_532" data-name="Path 532" d="M545.694,134.169a.094.094,0,0,1,.073.017.428.428,0,0,0,.118-.149c.01-.02.045-.006.037.015a.338.338,0,0,1-.131.165.081.081,0,0,1,0,.063l.008,0,0,0c.1-.04.205-.1.311-.153a.8.8,0,0,0,.12-.124c.084-.109.112-.256-.023-.338-.073-.044-.327-.062-.355.069a.03.03,0,0,1-.038.021A.591.591,0,0,1,545.694,134.169Z" transform="translate(-543.54 -132.127)" fill="#287039"/>
      <path id="Path_533" data-name="Path 533" d="M542.021,134.679a.025.025,0,0,1-.014-.011,1.436,1.436,0,0,1-.11-.206.919.919,0,0,0-.077-.087c-.093-.09-.327-.233-.45-.094-.107.121.041.273.128.347a.664.664,0,0,0,.107.073c.055.018.109.041.161.064a.744.744,0,0,0,.108.019.118.118,0,0,1,.035-.04.021.021,0,0,1-.011-.007,1.188,1.188,0,0,0-.207-.208c-.017-.014,0-.038.023-.029a.519.519,0,0,1,.217.219.019.019,0,0,1,0,.013.147.147,0,0,1,.071-.013l.02,0A.125.125,0,0,1,542.021,134.679Z" transform="translate(-540.12 -132.593)" fill="#287039"/>
      <path id="Path_534" data-name="Path 534" d="M544.094,136.718a.088.088,0,0,0-.085.056.06.06,0,0,0,.032.076c.032.01.046-.013.071-.024l.007,0a.154.154,0,0,1,.047-.071.123.123,0,0,1-.026-.027A.119.119,0,0,0,544.094,136.718Z" transform="translate(-542.217 -134.55)" fill="#d0b659"/>
      <path id="Path_535" data-name="Path 535" d="M544.831,137.062a.1.1,0,0,0,.1-.093.127.127,0,0,0-.1-.117.012.012,0,0,1-.009.006C544.711,136.878,544.7,137.066,544.831,137.062Z" transform="translate(-542.788 -134.654)" fill="#fff"/>
      <path id="Path_536" data-name="Path 536" d="M544.993,138.147c.058-.009.038-.086.03-.132l-.03.006a.156.156,0,0,1-.063-.007C544.927,138.062,544.926,138.157,544.993,138.147Z" transform="translate(-542.94 -135.566)" fill="#d0b659"/>
      <path id="Path_537" data-name="Path 537" d="M545.6,137.581a.141.141,0,0,1-.064.078.157.157,0,0,1,.008.018c.038.031.093.066.132.029s.007-.068-.016-.088A.3.3,0,0,0,545.6,137.581Z" transform="translate(-543.42 -135.226)" fill="#d0b659"/>
      <path id="Path_538" data-name="Path 538" d="M545.874,136.992a.139.139,0,0,0-.144-.03h0a.162.162,0,0,1,.028.073.129.129,0,0,1,0,.016l.011,0,.006,0A.127.127,0,0,0,545.874,136.992Z" transform="translate(-543.568 -134.736)" fill="#d0b659"/>
      <path id="Path_539" data-name="Path 539" d="M544.207,137.516a.1.1,0,0,1-.025.009c-.048.016-.079.089-.035.126s.094-.006.113-.046A.128.128,0,0,1,544.207,137.516Z" transform="translate(-542.311 -135.175)" fill="#d0b659"/>
      <path id="Path_540" data-name="Path 540" d="M544.758,136.247l0,0,.021-.006a.012.012,0,0,1,.01-.012h.016a.008.008,0,0,1,0-.009.063.063,0,1,0-.089-.085.016.016,0,0,1-.007.016A.087.087,0,0,0,544.758,136.247Z" transform="translate(-542.773 -134.069)" fill="#d0b659"/>
      <path id="Path_541" data-name="Path 541" d="M545.271,136.411a.142.142,0,0,1,.075.038.009.009,0,0,1,.011-.01.045.045,0,0,0,.023,0l.007,0a.066.066,0,0,0,.037-.073.018.018,0,0,1-.022-.022.064.064,0,0,0-.082.039.016.016,0,0,1-.024.01A.093.093,0,0,1,545.271,136.411Z" transform="translate(-543.209 -134.248)" fill="#d0b659"/>
      <path id="Path_542" data-name="Path 542" d="M546.455,135.935a.838.838,0,0,1-.1.053c-.059.031-.115.061-.163.082a.171.171,0,0,1,.044.04.02.02,0,0,1,0,.02l-.007.009h0a1.084,1.084,0,0,1,.238-.021.014.014,0,0,1,0,.028,1.091,1.091,0,0,1-.236.035.021.021,0,0,1-.021-.023.142.142,0,0,1-.079.042l.014.009a.031.031,0,0,1,.033-.012,3.344,3.344,0,0,1,.487.112.394.394,0,0,0,.207-.041.215.215,0,0,0,.076-.346C546.818,135.788,546.63,135.85,546.455,135.935Z" transform="translate(-543.883 -133.864)" fill="#287039"/>
      <path id="Path_543" data-name="Path 543" d="M546.664,137.929a1.1,1.1,0,0,1-.244-.065l-.175-.039a.109.109,0,0,1,.006.059.455.455,0,0,1,.1.074,1.183,1.183,0,0,0,.116.074c.013.007,0,.03-.01.024a.7.7,0,0,1-.126-.063.294.294,0,0,1-.094-.079.072.072,0,0,1-.006.01.09.09,0,0,1-.04.023,1.044,1.044,0,0,1,.111.149c.168.209.4.474.6.261C547.083,138.171,546.829,137.987,546.664,137.929Z" transform="translate(-543.93 -135.418)" fill="#287039"/>
      <path id="Path_544" data-name="Path 544" d="M545.077,138.3v0l-.018,0a.142.142,0,0,1-.049-.03s0,.008,0,.011a3.446,3.446,0,0,1,.082.337.017.017,0,0,1-.033.009c-.027-.087-.047-.177-.066-.266a.081.081,0,0,1-.068.039.087.087,0,0,1-.064-.024.492.492,0,0,1-.025.214.67.67,0,0,0,.018.182.555.555,0,0,0,.071.165.2.2,0,0,0,.327.023C545.4,138.723,545.2,138.483,545.077,138.3Z" transform="translate(-542.868 -135.761)" fill="#287039"/>
      <path id="Path_545" data-name="Path 545" d="M542.8,138.38h0a.013.013,0,0,1,0,0l-.007-.01a.133.133,0,0,1-.013-.066l-.017.01a.018.018,0,0,1,0,.016,2.161,2.161,0,0,0-.165.25c-.01.016-.038.006-.032-.013a.712.712,0,0,1,.153-.239.118.118,0,0,1-.077-.017,1.353,1.353,0,0,1-.2.095.54.54,0,0,0-.109.087c-.108.115-.163.344.02.422.272.116.379-.355.431-.518A.016.016,0,0,1,542.8,138.38Z" transform="translate(-540.831 -135.789)" fill="#287039"/>
      <path id="Path_546" data-name="Path 546" d="M541.406,136.922a.117.117,0,0,1,.012-.087,1.264,1.264,0,0,0-.261.019c-.032.006-.045-.043-.013-.048a1.281,1.281,0,0,1,.266-.014.107.107,0,0,1-.042-.084.748.748,0,0,1-.29-.085c-.2-.045-.417-.044-.365.211C540.782,137.174,541.205,137.021,541.406,136.922Z" transform="translate(-539.628 -134.459)" fill="#287039"/>
      <path id="Path_547" data-name="Path 547" d="M543.957,133.249a.908.908,0,0,0,.05.143c.033.05.063.1.091.154a.106.106,0,0,1,.069-.033h.013a.463.463,0,0,0-.041-.216.021.021,0,0,1,.035-.021.34.34,0,0,1,.045.245.089.089,0,0,1,.049.053c.145-.181.2-.638-.072-.709C543.959,132.8,543.918,133.087,543.957,133.249Z" transform="translate(-542.168 -131.522)" fill="#287039"/>
      <path id="Path_548" data-name="Path 548" d="M545.763,126.9a.753.753,0,0,0-1.083-.011,1.3,1.3,0,0,0-.341,1.075.229.229,0,0,1,.161-.025.32.32,0,0,1,.236.266c.039-.074.175-.109.248-.115a.3.3,0,0,1,.31.177.288.288,0,0,1-.033.266C545.778,128.205,546.219,127.444,545.763,126.9Z" transform="translate(-542.474 -126.664)" fill="#d0b659"/>
      <path id="Path_549" data-name="Path 549" d="M550.113,135.025a.666.666,0,0,0,.41-.907.942.942,0,0,0-1.5-.479c-.025.026-.052.05-.078.074l-.036.039a.009.009,0,0,1-.013,0,1.1,1.1,0,0,1-.208.132.456.456,0,0,1,.113,0,.315.315,0,0,1,.285.238.322.322,0,0,1-.226.331.406.406,0,0,1-.065.018.5.5,0,0,1,.064.047.349.349,0,0,1,.124.323h0A1.68,1.68,0,0,0,550.113,135.025Z" transform="translate(-545.885 -131.964)" fill="#d0b659"/>
      <path id="Path_550" data-name="Path 550" d="M544.3,141.36a.828.828,0,0,0,.924.424.849.849,0,0,0,.634-.769.988.988,0,0,0-.46-.856l0,.007a.324.324,0,0,1-.389.066.543.543,0,0,1-.183-.146c.059.183.044.369-.167.452-.146.058-.267-.063-.331-.185a.536.536,0,0,1-.033-.078A1.27,1.27,0,0,0,544.3,141.36Z" transform="translate(-542.348 -137.191)" fill="#d0b659"/>
      <path id="Path_551" data-name="Path 551" d="M535.853,138.342c.533.82,1.385.1,1.71-.512-.1.132-.24.211-.386.115a.3.3,0,0,1-.1-.366.419.419,0,0,1,.1-.15.5.5,0,0,1-.148,0,.345.345,0,0,1-.307-.264.267.267,0,0,1,.014-.152.825.825,0,0,1-.182,0A.868.868,0,0,0,535.853,138.342Z" transform="translate(-535.71 -134.782)" fill="#d0b659"/>
    </g>
    <g id="Group_1310" data-name="Group 1310" transform="translate(228.633 54.081)">
      <path id="Path_552" data-name="Path 552" d="M295.505,129.478a.036.036,0,0,0,.009-.019c0-.021,0-.042.007-.063.158-.642,1.034-1.176,1.566-.6a.945.945,0,0,1,.065,1.021.883.883,0,0,1-.878.489.028.028,0,0,0-.028.013.249.249,0,0,0-.11-.081.348.348,0,0,0-.147-.021l.024-.022c.092-.092.2-.239.122-.37a.306.306,0,0,0-.393-.062.566.566,0,0,0-.162.116.477.477,0,0,0,0-.28.308.308,0,0,0-.074-.115Z" transform="translate(-292.628 -128.144)" fill="#d0b659"/>
      <path id="Path_553" data-name="Path 553" d="M291.7,134.169a.094.094,0,0,0-.072.017.428.428,0,0,1-.118-.149c-.01-.02-.045-.006-.037.015a.339.339,0,0,0,.131.165.082.082,0,0,0,0,.063l-.008,0,0,0c-.1-.04-.205-.1-.311-.153a.79.79,0,0,1-.12-.124c-.084-.109-.112-.256.023-.338.073-.044.327-.062.355.069a.03.03,0,0,0,.038.021A.59.59,0,0,0,291.7,134.169Z" transform="translate(-289.167 -132.127)" fill="#287039"/>
      <path id="Path_554" data-name="Path 554" d="M295.071,134.679a.025.025,0,0,0,.014-.011,1.415,1.415,0,0,0,.11-.206.886.886,0,0,1,.077-.087c.093-.09.327-.233.449-.094.107.121-.04.273-.128.347a.657.657,0,0,1-.107.073c-.055.018-.11.041-.161.064a.733.733,0,0,1-.107.019.122.122,0,0,0-.035-.04.019.019,0,0,0,.011-.007,1.185,1.185,0,0,1,.208-.208c.017-.014,0-.038-.023-.029a.519.519,0,0,0-.217.219.017.017,0,0,0,0,.013.147.147,0,0,0-.071-.013l-.02,0A.13.13,0,0,0,295.071,134.679Z" transform="translate(-292.286 -132.593)" fill="#287039"/>
      <path id="Path_555" data-name="Path 555" d="M294.922,136.718a.088.088,0,0,1,.085.056.06.06,0,0,1-.032.076c-.032.01-.046-.013-.071-.024l-.007,0a.155.155,0,0,0-.047-.071.125.125,0,0,0,.026-.027A.119.119,0,0,1,294.922,136.718Z" transform="translate(-292.114 -134.55)" fill="#d0b659"/>
      <path id="Path_556" data-name="Path 556" d="M294.046,137.062a.1.1,0,0,1-.1-.093.127.127,0,0,1,.1-.117.012.012,0,0,0,.009.006C294.166,136.878,294.18,137.066,294.046,137.062Z" transform="translate(-291.403 -134.654)" fill="#fff"/>
      <path id="Path_557" data-name="Path 557" d="M294.226,138.147c-.058-.009-.038-.086-.03-.132l.03.006a.154.154,0,0,0,.063-.007C294.292,138.062,294.293,138.157,294.226,138.147Z" transform="translate(-291.594 -135.566)" fill="#d0b659"/>
      <path id="Path_558" data-name="Path 558" d="M293.438,137.581a.14.14,0,0,0,.064.078l-.008.018c-.038.031-.093.066-.132.029s-.007-.068.016-.088A.3.3,0,0,1,293.438,137.581Z" transform="translate(-290.937 -135.226)" fill="#d0b659"/>
      <path id="Path_559" data-name="Path 559" d="M293.2,136.992a.139.139,0,0,1,.144-.03h0a.157.157,0,0,0-.028.073.129.129,0,0,0,0,.016l-.011,0-.006,0A.127.127,0,0,1,293.2,136.992Z" transform="translate(-290.819 -134.736)" fill="#d0b659"/>
      <path id="Path_560" data-name="Path 560" d="M294.9,137.516a.1.1,0,0,0,.025.009c.048.016.079.089.035.126s-.094-.006-.113-.046A.128.128,0,0,0,294.9,137.516Z" transform="translate(-292.115 -135.175)" fill="#d0b659"/>
      <path id="Path_561" data-name="Path 561" d="M294.377,136.247l0,0-.02-.006a.012.012,0,0,0-.01-.012h-.016a.008.008,0,0,0,0-.009.063.063,0,1,1,.089-.085.016.016,0,0,0,.007.016A.087.087,0,0,1,294.377,136.247Z" transform="translate(-291.678 -134.069)" fill="#d0b659"/>
      <path id="Path_562" data-name="Path 562" d="M293.767,136.411a.143.143,0,0,0-.075.038.009.009,0,0,0-.011-.01.046.046,0,0,1-.023,0l-.007,0a.066.066,0,0,1-.037-.073.018.018,0,0,0,.022-.022.064.064,0,0,1,.081.039.017.017,0,0,0,.024.01A.091.091,0,0,0,293.767,136.411Z" transform="translate(-291.144 -134.248)" fill="#d0b659"/>
      <path id="Path_563" data-name="Path 563" d="M289.955,135.935a.84.84,0,0,0,.1.053c.059.031.115.061.164.082a.171.171,0,0,0-.044.04.02.02,0,0,0,0,.02l.007.009h0a1.083,1.083,0,0,0-.238-.021.014.014,0,0,0,0,.028,1.1,1.1,0,0,0,.236.035.021.021,0,0,0,.021-.023.141.141,0,0,0,.079.042l-.014.009a.032.032,0,0,0-.033-.012,3.34,3.34,0,0,0-.486.112.394.394,0,0,1-.207-.041.215.215,0,0,1-.076-.346C289.591,135.788,289.78,135.85,289.955,135.935Z" transform="translate(-287.841 -133.864)" fill="#287039"/>
      <path id="Path_564" data-name="Path 564" d="M290.123,137.929a1.1,1.1,0,0,0,.244-.065l.175-.039a.109.109,0,0,0-.006.059.452.452,0,0,0-.1.074,1.194,1.194,0,0,1-.116.074c-.013.007,0,.03.01.024a.7.7,0,0,0,.126-.063.3.3,0,0,0,.094-.079.068.068,0,0,0,.006.01.092.092,0,0,0,.04.023,1.065,1.065,0,0,0-.111.149c-.168.209-.4.474-.6.261C289.7,138.171,289.958,137.987,290.123,137.929Z" transform="translate(-288.172 -135.418)" fill="#287039"/>
      <path id="Path_565" data-name="Path 565" d="M292.816,138.3v0l.018,0a.142.142,0,0,0,.049-.03s0,.008,0,.011a3.386,3.386,0,0,0-.082.337.017.017,0,0,0,.033.009c.027-.087.047-.177.066-.266a.082.082,0,0,0,.068.039.087.087,0,0,0,.064-.024.493.493,0,0,0,.025.214.669.669,0,0,1-.018.182.554.554,0,0,1-.071.165.2.2,0,0,1-.326.023C292.49,138.723,292.693,138.483,292.816,138.3Z" transform="translate(-290.34 -135.761)" fill="#287039"/>
      <path id="Path_566" data-name="Path 566" d="M294.746,138.38h0a.013.013,0,0,0,0,0l.006-.01a.131.131,0,0,0,.013-.066l.017.01a.018.018,0,0,0,0,.016,2.184,2.184,0,0,1,.165.25c.01.016.038.006.031-.013a.716.716,0,0,0-.153-.239.118.118,0,0,0,.077-.017,1.353,1.353,0,0,0,.2.095.538.538,0,0,1,.109.087c.108.115.164.344-.02.422-.272.116-.379-.355-.431-.518A.016.016,0,0,0,294.746,138.38Z" transform="translate(-292.03 -135.789)" fill="#287039"/>
      <path id="Path_567" data-name="Path 567" d="M295.6,136.922a.117.117,0,0,0-.013-.087,1.263,1.263,0,0,1,.261.019c.031.006.045-.043.013-.048a1.279,1.279,0,0,0-.266-.014.107.107,0,0,0,.042-.084.746.746,0,0,0,.29-.085c.2-.045.417-.044.365.211C296.226,137.174,295.8,137.021,295.6,136.922Z" transform="translate(-292.695 -134.459)" fill="#287039"/>
      <path id="Path_568" data-name="Path 568" d="M294.03,133.249a.911.911,0,0,1-.05.143c-.033.05-.063.1-.091.154a.106.106,0,0,0-.069-.033h-.013a.461.461,0,0,1,.041-.216.021.021,0,0,0-.036-.021.341.341,0,0,0-.044.245.089.089,0,0,0-.049.053c-.145-.181-.2-.638.072-.709C294.029,132.8,294.07,133.087,294.03,133.249Z" transform="translate(-291.134 -131.522)" fill="#287039"/>
      <path id="Path_569" data-name="Path 569" d="M287.95,126.9a.753.753,0,0,1,1.083-.011,1.3,1.3,0,0,1,.341,1.075.229.229,0,0,0-.162-.025.32.32,0,0,0-.236.266c-.039-.074-.175-.109-.248-.115a.3.3,0,0,0-.31.177.289.289,0,0,0,.033.266C287.935,128.205,287.494,127.444,287.95,126.9Z" transform="translate(-286.553 -126.664)" fill="#d0b659"/>
      <path id="Path_570" data-name="Path 570" d="M282.625,135.025a.666.666,0,0,1-.41-.907.942.942,0,0,1,1.5-.479c.025.026.052.05.078.074s.024.025.036.039a.01.01,0,0,0,.013,0,1.1,1.1,0,0,0,.207.132.456.456,0,0,0-.113,0,.314.314,0,0,0-.285.238.322.322,0,0,0,.226.331.41.41,0,0,0,.065.018.5.5,0,0,0-.064.047.349.349,0,0,0-.124.323h0A1.68,1.68,0,0,1,282.625,135.025Z" transform="translate(-282.167 -131.964)" fill="#d0b659"/>
      <path id="Path_571" data-name="Path 571" d="M289.167,141.36a.828.828,0,0,1-.924.424.849.849,0,0,1-.634-.769.988.988,0,0,1,.46-.856l0,.007a.325.325,0,0,0,.389.066.545.545,0,0,0,.183-.146c-.059.183-.044.369.167.452.146.058.267-.063.331-.185a.526.526,0,0,0,.033-.078A1.269,1.269,0,0,1,289.167,141.36Z" transform="translate(-286.434 -137.191)" fill="#d0b659"/>
      <path id="Path_572" data-name="Path 572" d="M297.007,138.342c-.533.82-1.385.1-1.71-.512.1.132.24.211.386.115a.3.3,0,0,0,.1-.366.422.422,0,0,0-.1-.15.5.5,0,0,0,.148,0,.345.345,0,0,0,.307-.264.271.271,0,0,0-.014-.152.825.825,0,0,0,.182,0A.868.868,0,0,1,297.007,138.342Z" transform="translate(-292.465 -134.782)" fill="#d0b659"/>
    </g>
    <g id="Group_1314" data-name="Group 1314" transform="translate(269.775 87.166)">
      <path id="Path_573" data-name="Path 573" d="M482.972,284.906c-.027.057-9.514,0-9.514,0s-.842-1.4-.421-1.878,1.094.426,1.094.426.042-1.578.21-1.326.379-1.327.673-.684.421,1.42.673.968.083-1.97.421-1.714.248,1.488.631.883,1.052-1.9,1.978-1.415,1.173,2.173,1.472,1.548,1.094-1.774,1.052-.89,1.119.056.938.89.671.392.792.7S483.945,282.845,482.972,284.906Z" transform="translate(-472.92 -280.06)" fill="#21201f"/>
      <g id="Group_1313" data-name="Group 1313" transform="translate(0 0)">
        <path id="Path_574" data-name="Path 574" d="M482.972,284.906c-.027.057-9.514,0-9.514,0s-.842-1.4-.421-1.878,1.094.426,1.094.426.042-1.578.21-1.326.379-1.327.673-.684.421,1.42.673.968.083-1.97.421-1.714.248,1.488.631.883,1.052-1.9,1.978-1.415,1.173,2.173,1.472,1.548,1.094-1.774,1.052-.89,1.119.056.938.89.671.392.792.7S483.945,282.845,482.972,284.906Z" transform="translate(-472.92 -280.06)"/>
        <g id="Group_1312" data-name="Group 1312" clip-path="url(#clip-path-2)">
          <g id="Group_1311" data-name="Group 1311" transform="translate(-2.541 -12.06)">
            <line id="Line_12" data-name="Line 12" y1="23.614" x2="6.392" transform="translate(1.48 0.238)" fill="#21201f"/>
            <line id="Line_13" data-name="Line 13" y1="23.614" x2="6.392" fill="#21201f"/>
            <line id="Line_14" data-name="Line 14" y1="23.614" x2="6.392" transform="translate(2.316 2.764)" fill="#21201f"/>
          </g>
        </g>
      </g>
    </g>
    <g id="Group_1318" data-name="Group 1318" transform="translate(253.617 89.045)">
      <g id="Group_1315" data-name="Group 1315" transform="translate(0 0)">
        <rect id="Rectangle_103" data-name="Rectangle 103" width="2.525" height="14.657" transform="translate(0.066 0.065)" fill="#186634"/>
        <path id="Path_576" data-name="Path 576" d="M400.661,303.559h-2.656V288.771h2.656Zm-2.525-.131h2.394V288.9h-2.394Z" transform="translate(-398.005 -288.771)" fill="#fff"/>
      </g>
      <g id="Group_1316" data-name="Group 1316" transform="translate(2.873 3.409)">
        <path id="Path_577" data-name="Path 577" d="M419.134,305.17v14.6h-7.5v-2.524h4.979V306.995Z" transform="translate(-411.565 -305.042)" fill="#186634"/>
        <path id="Path_578" data-name="Path 578" d="M418.962,319.373h-7.635v-2.655h4.979V306.495l2.656-1.919Zm-7.5-.131h7.373v-14.41l-2.394,1.73v10.286h-4.98Z" transform="translate(-411.327 -304.576)" fill="#fff"/>
      </g>
      <g id="Group_1317" data-name="Group 1317" transform="translate(0 0.211)">
        <path id="Path_579" data-name="Path 579" d="M410.318,292.221l-3.4,2.457-2.525,1.824-3.559,2.571-2.4,1.732-.128-.177v-2.846l2.525-1.824,3.559-2.571,2.525-1.824,1.922-1.388Z" transform="translate(-398.244 -290.083)" fill="#186634"/>
        <path id="Path_580" data-name="Path 580" d="M398.184,300.563l-.179-.247v-2.9l10.611-7.665,1.555,2.153Zm-.048-.289.077.107,11.775-8.507-1.4-1.94-10.45,7.55Z" transform="translate(-398.005 -289.75)" fill="#fff"/>
      </g>
    </g>
  </g>
</svg>
