<svg xmlns="http://www.w3.org/2000/svg" width="15.361" height="13.952" viewBox="0 0 15.361 13.952">
  <g id="like_1_" data-name="like (1)" transform="translate(0.15 0.15)">
    <g id="Group_220" data-name="Group 220" transform="translate(0 0)">
      <g id="Group_219" data-name="Group 219" transform="translate(0 0)">
        <path id="Path_251" data-name="Path 251" d="M15.06,18.829a1.284,1.284,0,0,0-.409-.934,1.425,1.425,0,0,0,.4-1.133,1.594,1.594,0,0,0-1.637-1.346H9.541a8.133,8.133,0,0,0,.5-2.374,2.459,2.459,0,0,0-1.883-2.374,2.038,2.038,0,0,0-1.137.361.291.291,0,0,0-.118.232v2.013l-1.808,3.7-.075.036V16.9a.306.306,0,0,0-.314-.3H1.569A1.53,1.53,0,0,0,0,18.087v4.749a1.529,1.529,0,0,0,1.569,1.484H3.451a1.57,1.57,0,0,0,1.477-.981,4.282,4.282,0,0,0,1.661.388h5.76a1.431,1.431,0,0,0,1.422-1.036,1.275,1.275,0,0,0-.113-.892,1.325,1.325,0,0,0,.775-1.188,1.262,1.262,0,0,0-.147-.593A1.325,1.325,0,0,0,15.06,18.829Zm-1.323.732a.312.312,0,0,0-.262.2.287.287,0,0,0,.083.31.715.715,0,0,1,.248.537.756.756,0,0,1-.7.732.312.312,0,0,0-.262.2.287.287,0,0,0,.083.31.709.709,0,0,1,.227.708.806.806,0,0,1-.809.571H6.589a3.091,3.091,0,0,1-1.66-.507.33.33,0,0,0-.342-.064.3.3,0,0,0-.194.274.918.918,0,0,1-.941.89H1.569a.918.918,0,0,1-.941-.89V18.087a.918.918,0,0,1,.941-.89H4.393v.3a.3.3,0,0,0,.149.253.337.337,0,0,0,.3.012l.628-.3a.3.3,0,0,0,.144-.141L7.5,13.463a.289.289,0,0,0,.029-.125V11.421a1.381,1.381,0,0,1,.628-.161,1.972,1.972,0,0,1,1.255,1.781,8.83,8.83,0,0,1-.607,2.565.285.285,0,0,0,.035.274.321.321,0,0,0,.259.128h4.318a.976.976,0,0,1,1.012.807.873.873,0,0,1-.447.84.293.293,0,0,0-.149.264.3.3,0,0,0,.17.253.732.732,0,0,1,.43.656A.756.756,0,0,1,13.737,19.561Z" transform="translate(0 -10.667)" fill="#212121" stroke="#212121" stroke-width="0.3"/>
      </g>
    </g>
    <g id="Group_222" data-name="Group 222" transform="translate(4.393 6.529)">
      <g id="Group_221" data-name="Group 221">
        <path id="Path_252" data-name="Path 252" d="M149.647,245.333a.306.306,0,0,0-.314.3v5.342a.314.314,0,0,0,.628,0V245.63A.306.306,0,0,0,149.647,245.333Z" transform="translate(-149.333 -245.333)" fill="#212121" stroke="#212121" stroke-width="0.3"/>
      </g>
    </g>
  </g>
</svg>
