<svg xmlns="http://www.w3.org/2000/svg" width="24.5" height="24.499" viewBox="0 0 24.5 24.499">
  <path id="Icon_awesome-linkedin-in" data-name="Icon awesome-linkedin-in" d="M5.484,24.5H.4V8.143H5.484ZM2.942,5.912a2.956,2.956,0,1,1,2.942-2.97A2.966,2.966,0,0,1,2.942,5.912ZM24.495,24.5H19.426V16.538c0-1.9-.038-4.331-2.641-4.331-2.641,0-3.046,2.062-3.046,4.195v8.1H8.666V8.143h4.872v2.231h.071a5.337,5.337,0,0,1,4.806-2.641c5.141,0,6.086,3.385,6.086,7.782V24.5Z" transform="translate(0 -0.001)"/>
</svg>
