<svg xmlns="http://www.w3.org/2000/svg" width="17.998" height="18.995" viewBox="0 0 17.998 18.995">
  <path id="Path_303" data-name="Path 303" d="M30.623,12.317a3.384,3.384,0,0,0-2.714,1.357L22.612,11A3.306,3.306,0,0,0,22.5,8.8l5.551-3.3A3.381,3.381,0,0,0,34,3.339a3.375,3.375,0,0,0-6.749,0,3.291,3.291,0,0,0,.228,1.207L21.911,7.855A3.337,3.337,0,1,0,22.118,12L27.4,14.666a3.3,3.3,0,0,0-.151.99,3.375,3.375,0,1,0,3.375-3.339Zm0-11.2a2.226,2.226,0,1,1-2.25,2.226A2.24,2.24,0,0,1,30.623,1.113ZM19.375,12.28a2.226,2.226,0,1,1,2.25-2.226A2.24,2.24,0,0,1,19.375,12.28Zm11.248,5.6a2.226,2.226,0,1,1,2.25-2.226A2.24,2.24,0,0,1,30.623,17.882Z" transform="translate(-16)" fill="#fff"/>
</svg>
