<svg xmlns="http://www.w3.org/2000/svg" width="34" height="33" viewBox="0 0 34 33">
  <g id="Group_2688" data-name="Group 2688" transform="translate(-319 -804)">
    <g id="Ellipse_255" data-name="Ellipse 255" transform="translate(319 804)" fill="#707070" stroke="#707070" stroke-width="1" opacity="0.38">
      <ellipse cx="17" cy="16.5" rx="17" ry="16.5" stroke="none"/>
      <ellipse cx="17" cy="16.5" rx="16.5" ry="16" fill="none"/>
    </g>
    <g id="Path_1215" data-name="Path 1215" transform="matrix(-0.017, 1, -1, -0.017, 344.444, 813.926)" stroke-linecap="round">
      <path d="M 12.55231475830078 11.93940162658691 L 12.55188465118408 11.93940162658691 L 0.8186947703361511 11.9266414642334 C 0.6372447609901428 11.92644214630127 0.5421247482299805 11.79865169525146 0.5096547603607178 11.7437219619751 C 0.4345747530460358 11.61672210693359 0.4319747388362885 11.4639720916748 0.5026947259902954 11.33511161804199 L 6.358034610748291 0.6666316986083984 C 6.453054904937744 0.4935017228126526 6.608334541320801 0.4748117327690125 6.670674800872803 0.4748117327690125 C 6.733524799346924 0.4748117327690125 6.890084743499756 0.4937117397785187 6.986414909362793 0.6687617301940918 L 12.86426448822021 11.34999179840088 C 12.93547439575195 11.47939205169678 12.93330478668213 11.63224220275879 12.85845470428467 11.75885200500488 C 12.82636451721191 11.81314182281494 12.73230457305908 11.93940162658691 12.55231475830078 11.93940162658691 Z" stroke="none"/>
      <path d="M 6.671806335449219 1.134130477905273 L 1.022687911987305 11.4268627166748 L 12.34262657165527 11.43917369842529 L 6.671806335449219 1.134130477905273 M 6.670682430267334 -0.02519416809082031 C 6.964376926422119 -0.02519416809082031 7.258332252502441 0.1258001327514648 7.424464702606201 0.4276914596557617 L 13.30231475830078 11.10893154144287 C 13.62962436676025 11.70371150970459 13.21397018432617 12.4401159286499 12.551344871521 12.43940162658691 L 0.8181543350219727 12.4266414642334 C 0.1555442810058594 12.42592144012451 -0.2616748809814453 11.68860149383545 0.06437492370605469 11.09453201293945 L 5.91971492767334 0.4260616302490234 C 6.084843158721924 0.1251926422119141 6.377632617950439 -0.02519416809082031 6.670682430267334 -0.02519416809082031 Z" stroke="none" fill="#000"/>
    </g>
  </g>
</svg>
