<svg xmlns="http://www.w3.org/2000/svg" xmlns:xlink="http://www.w3.org/1999/xlink" width="20.533" height="20.534" viewBox="0 0 20.533 20.534">
  <defs>
    <linearGradient id="linear-gradient" y1="0.5" x2="1" y2="0.56" gradientUnits="objectBoundingBox">
      <stop offset="0" stop-color="#d6c980"/>
      <stop offset="0.402" stop-color="#b7a764"/>
      <stop offset="0.757" stop-color="#e4db8c"/>
      <stop offset="1" stop-color="#b8a765"/>
    </linearGradient>
  </defs>
  <g id="Group_2632" data-name="Group 2632" transform="translate(-760 -759.733)">
    <g id="Group_2626" data-name="Group 2626">
      <g id="Group_1893" data-name="Group 1893" transform="translate(685.468 455.767)">
        <g id="Group_2630" data-name="Group 2630">
          <g id="Group_2627" data-name="Group 2627">
            <path id="Path_227" data-name="Path 227" d="M212.125,323.836a8.066,8.066,0,0,0-1.51-1.085,8.071,8.071,0,0,0-.425-1.811.6.6,0,0,0-.35-.35,8.078,8.078,0,0,0-1.811-.425,8.1,8.1,0,0,0-1.085-1.511.537.537,0,0,0-.458-.189,8.073,8.073,0,0,0-1.836.3,9.524,9.524,0,0,0-1.58-1.021.6.6,0,0,0-.5,0,9.533,9.533,0,0,0-1.58,1.021,8.074,8.074,0,0,0-1.836-.3.531.531,0,0,0-.458.189,8.1,8.1,0,0,0-1.085,1.511,8.075,8.075,0,0,0-1.811.425.6.6,0,0,0-.35.35,8.077,8.077,0,0,0-.425,1.811,8.107,8.107,0,0,0-1.511,1.085.6.6,0,0,0-.189.458,8.042,8.042,0,0,0,.3,1.836,9.48,9.48,0,0,0-1.021,1.58.6.6,0,0,0,0,.5,9.477,9.477,0,0,0,1.021,1.58,8.043,8.043,0,0,0-.3,1.836.6.6,0,0,0,.189.458,8.1,8.1,0,0,0,1.511,1.085,8.08,8.08,0,0,0,.425,1.811.6.6,0,0,0,.351.35,8.066,8.066,0,0,0,1.81.425,8.075,8.075,0,0,0,1.085,1.51.569.569,0,0,0,.458.19,8.064,8.064,0,0,0,1.835-.3,9.573,9.573,0,0,0,1.581,1.02.6.6,0,0,0,.5,0,9.538,9.538,0,0,0,1.58-1.02,8.07,8.07,0,0,0,1.836.3.564.564,0,0,0,.458-.19,8.075,8.075,0,0,0,1.085-1.51,8.063,8.063,0,0,0,1.811-.425.6.6,0,0,0,.351-.35,8.075,8.075,0,0,0,.425-1.811,8.079,8.079,0,0,0,1.51-1.085.6.6,0,0,0,.19-.458,8.068,8.068,0,0,0-.3-1.836,9.49,9.49,0,0,0,1.02-1.58.6.6,0,0,0,0-.5,9.493,9.493,0,0,0-1.02-1.58,8.067,8.067,0,0,0,.3-1.836.6.6,0,0,0-.19-.458Z" transform="translate(-118.024 -13.725)" fill="url(#linear-gradient)"/>
          </g>
        </g>
        <g id="Group_2629" data-name="Group 2629">
          <g id="Group_2628" data-name="Group 2628">
            <path id="Path_228" data-name="Path 228" d="M238.792,376.594a1.117,1.117,0,0,1-1.535,0l-1.667-1.668-1.535,1.535,3.97,3.97,8.312-8.312-1.536-1.535Zm0,0" transform="translate(-155.397 -61.36)"/>
          </g>
        </g>
      </g>
    </g>
  </g>
</svg>
