<svg id="visibility_1_" data-name="visibility (1)" xmlns="http://www.w3.org/2000/svg" width="22.387" height="12.599" viewBox="0 0 22.387 12.599">
  <g id="Group_224" data-name="Group 224" transform="translate(0 0)">
    <g id="Group_223" data-name="Group 223" transform="translate(0)">
      <path id="Path_253" data-name="Path 253" d="M22.3,112.706c-.176-.247-4.413-6.044-11.111-6.044-5.747,0-10.868,5.763-11.084,6.009a.439.439,0,0,0,0,.581c.215.246,5.337,6.009,11.084,6.009s10.868-5.763,11.084-6.009A.438.438,0,0,0,22.3,112.706Zm-11.111,5.655c-4.607,0-8.988-4.238-10.1-5.4,1.111-1.162,5.487-5.4,10.1-5.4,5.391,0,9.2,4.232,10.125,5.375C20.246,114.061,15.84,118.361,11.194,118.361Z" transform="translate(0 -106.662)" fill="#fff"/>
    </g>
  </g>
  <g id="Group_226" data-name="Group 226" transform="translate(7.116 2.222)">
    <g id="Group_225" data-name="Group 225">
      <path id="Path_254" data-name="Path 254" d="M174.739,170.662a4.077,4.077,0,1,0,4.077,4.077A4.081,4.081,0,0,0,174.739,170.662Zm0,7.135a3.058,3.058,0,1,1,3.058-3.058A3.062,3.062,0,0,1,174.739,177.8Z" transform="translate(-170.662 -170.662)" fill="#fff"/>
    </g>
  </g>
</svg>
