<svg id="Group_25" data-name="Group 25" xmlns="http://www.w3.org/2000/svg" width="10.95" height="14.795" viewBox="0 0 10.95 14.795">
  <path id="Path_34" data-name="Path 34" d="M81.475,0A5.35,5.35,0,0,0,76,5.2a5,5,0,0,0,.817,2.735l4.346,6.654a.462.462,0,0,0,.388.2h0a.461.461,0,0,0,.388-.211l4.235-6.718A5,5,0,0,0,86.95,5.2,5.35,5.35,0,0,0,81.475,0ZM85.4,7.421l-3.851,6.108L77.593,7.48A4.17,4.17,0,0,1,76.906,5.2a4.573,4.573,0,0,1,9.134,0A4.168,4.168,0,0,1,85.4,7.421Z" transform="translate(-76)" fill="#fff"/>
  <path id="Path_35" data-name="Path 35" d="M168.187,90a2.187,2.187,0,1,0,2.187,2.187A2.189,2.189,0,0,0,168.187,90Zm0,3.649a1.463,1.463,0,1,1,1.46-1.463A1.464,1.464,0,0,1,168.187,93.649Z" transform="translate(-162.711 -87.175)" fill="#fff"/>
</svg>
