<svg xmlns="http://www.w3.org/2000/svg" width="14.021" height="14.631" viewBox="0 0 14.021 14.631">
  <path id="Icon_metro-instagram" data-name="Icon metro-instagram" d="M14.264,1.928H4.9A2.387,2.387,0,0,0,2.571,4.357V14.13A2.387,2.387,0,0,0,4.9,16.559h9.366a2.387,2.387,0,0,0,2.328-2.429V4.357A2.387,2.387,0,0,0,14.264,1.928Zm-7.2,6.4H12.1a2.884,2.884,0,0,1,.148.914,2.733,2.733,0,0,1-2.67,2.786,2.733,2.733,0,0,1-2.67-2.786A2.883,2.883,0,0,1,7.059,8.329Zm7.78,0v5.486a.9.9,0,0,1-.876.914H5.2a.9.9,0,0,1-.876-.914V8.329H5.694a4.329,4.329,0,0,0-.1.914A4.079,4.079,0,0,0,9.581,13.4a4.079,4.079,0,0,0,3.985-4.158,4.327,4.327,0,0,0-.1-.914Zm0-3.2a.449.449,0,0,1-.438.457h-.876a.449.449,0,0,1-.438-.457V4.214a.449.449,0,0,1,.438-.457H14.4a.449.449,0,0,1,.438.457Z" transform="translate(-2.571 -1.928)" fill="#fff"/>
</svg>
