<svg xmlns="http://www.w3.org/2000/svg" width="12.864" height="14.263" viewBox="0 0 12.864 14.263">
  <path id="Icon_awesome-linkedin-in" data-name="Icon awesome-linkedin-in" d="M2.879,14.264H.212V4.741H2.879ZM1.545,3.442A1.65,1.65,0,0,1,0,1.713,1.635,1.635,0,0,1,1.545,0,1.635,1.635,0,0,1,3.089,1.713,1.651,1.651,0,0,1,1.545,3.442ZM12.861,14.264H10.2V9.628c0-1.1-.02-2.522-1.387-2.522-1.387,0-1.6,1.2-1.6,2.442v4.715H4.55V4.741H7.108v1.3h.037A2.766,2.766,0,0,1,9.669,4.5c2.7,0,3.2,1.971,3.2,4.531v5.231Z" transform="translate(0 -0.001)" fill="#fff"/>
</svg>
