<svg xmlns="http://www.w3.org/2000/svg" width="14.777" height="13.616" viewBox="0 0 14.777 13.616">
  <path id="Icon_awesome-twitter" data-name="Icon awesome-twitter" d="M13.258,6.774c.009.149.009.3.009.447C13.267,11.763,10.22,17,4.651,17A7.839,7.839,0,0,1,0,15.455a5.53,5.53,0,0,0,.731.043,5.626,5.626,0,0,0,3.76-1.468A3.109,3.109,0,0,1,1.66,11.646a3.377,3.377,0,0,0,.572.053,2.846,2.846,0,0,0,.8-.117A3.358,3.358,0,0,1,.6,8.21V8.168A2.783,2.783,0,0,0,1.969,8.6,3.575,3.575,0,0,1,.619,5.742a3.767,3.767,0,0,1,.413-1.734A8.321,8.321,0,0,0,7.276,7.6,4.381,4.381,0,0,1,7.2,6.817a3.25,3.25,0,0,1,3.028-3.436,2.867,2.867,0,0,1,2.213,1.085,5.553,5.553,0,0,0,1.922-.83A3.384,3.384,0,0,1,13.033,5.53,5.515,5.515,0,0,0,14.777,5a7.056,7.056,0,0,1-1.519,1.776Z" transform="translate(0 -3.381)" fill="#fff"/>
</svg>
