<svg xmlns="http://www.w3.org/2000/svg" width="12.41" height="11.849" viewBox="0 0 12.41 11.849">
  <path id="Icon_metro-link" data-name="Icon metro-link" d="M8.25,9.68a.659.659,0,0,1-.456-.18,2.8,2.8,0,0,1,0-4.089l2.383-2.275a3.132,3.132,0,0,1,4.283,0,2.8,2.8,0,0,1,0,4.089l-1.089,1.04a.667.667,0,0,1-.913,0,.6.6,0,0,1,0-.871l1.089-1.04a1.608,1.608,0,0,0,0-2.346,1.8,1.8,0,0,0-2.458,0L8.706,6.283a1.608,1.608,0,0,0,0,2.346.6.6,0,0,1,0,.871.659.659,0,0,1-.456.18ZM5.963,14.138a3.083,3.083,0,0,1-2.142-.847,2.8,2.8,0,0,1,0-4.089l1.089-1.04a.667.667,0,0,1,.913,0,.6.6,0,0,1,0,.871l-1.089,1.04a1.608,1.608,0,0,0,0,2.346,1.8,1.8,0,0,0,2.458,0l2.383-2.275a1.608,1.608,0,0,0,0-2.346.6.6,0,0,1,0-.871.667.667,0,0,1,.913,0,2.8,2.8,0,0,1,0,4.089L8.1,13.291a3.083,3.083,0,0,1-2.142.847Z" transform="translate(-2.936 -2.29)" fill="#fff"/>
</svg>
